{
  "accessors": [
    {
      "bufferView": 2,
      "componentType": 5126,
      "count": 3080,
      "max": [
        1.8029887676239014,
        6.0023107528686523,
        0.034204065799713135
      ],
      "min": [
        -1.8029887676239014,
        -3.5264225006103516,
        -0.9095224142074585
      ],
      "type": "VEC3"
    },
    {
      "bufferView": 2,
      "byteOffset": 36960,
      "componentType": 5126,
      "count": 3080,
      "max": [
        0.99997949600219727,
        1,
        1
      ],
      "min": [
        -0.99997949600219727,
        -1,
        -1
      ],
      "type": "VEC3"
    },
    {
      "bufferView": 1,
      "componentType": 5126,
      "count": 3080,
      "max": [
        0.99900001287460327,
        0.99900001287460327
      ],
      "min": [
        0.0010000000474974513,
        0.0010000000474974513
      ],
      "type": "VEC2"
    },
    {
      "bufferView": 0,
      "componentType": 5125,
      "count": 5106,
      "max": [
        3079
      ],
      "min": [
        0
      ],
      "type": "SCALAR"
    },
    {
      "bufferView": 2,
      "byteOffset": 73920,
      "componentType": 5126,
      "count": 1112,
      "max": [
        1.7878072261810303,
        0.99855166673660278,
        0.13974672555923462
      ],
      "min": [
        -1.7878072261810303,
        -3.511239767074585,
        -0.015221308916807175
      ],
      "type": "VEC3"
    },
    {
      "bufferView": 2,
      "byteOffset": 87264,
      "componentType": 5126,
      "count": 1112,
      "max": [
        1,
        1,
        1
      ],
      "min": [
        -1,
        -1,
        -1
      ],
      "type": "VEC3"
    },
    {
      "bufferView": 1,
      "byteOffset": 24640,
      "componentType": 5126,
      "count": 1112,
      "max": [
        0.99900001287460327,
        0.99900001287460327
      ],
      "min": [
        0.0010000000474974513,
        0.0010000000474974513
      ],
      "type": "VEC2"
    },
    {
      "bufferView": 0,
      "byteOffset": 20424,
      "componentType": 5125,
      "count": 1884,
      "max": [
        1111
      ],
      "min": [
        0
      ],
      "type": "SCALAR"
    },
    {
      "bufferView": 2,
      "byteOffset": 100608,
      "componentType": 5126,
      "count": 2486,
      "max": [
        1.8029887676239014,
        6.0023107528686523,
        0.085012540221214294
      ],
      "min": [
        -1.8029887676239014,
        -3.5501811504364014,
        -0.89430147409439087
      ],
      "type": "VEC3"
    },
    {
      "bufferView": 2,
      "byteOffset": 130440,
      "componentType": 5126,
      "count": 2486,
      "max": [
        1,
        1,
        1
      ],
      "min": [
        -1,
        -1,
        -1
      ],
      "type": "VEC3"
    },
    {
      "bufferView": 1,
      "byteOffset": 33536,
      "componentType": 5126,
      "count": 2486,
      "max": [
        0.99900001287460327,
        0.99900001287460327
      ],
      "min": [
        0.0010000000474974513,
        0.0010000000474974513
      ],
      "type": "VEC2"
    },
    {
      "bufferView": 0,
      "byteOffset": 27960,
      "componentType": 5125,
      "count": 3732,
      "max": [
        2485
      ],
      "min": [
        0
      ],
      "type": "SCALAR"
    },
    {
      "bufferView": 2,
      "byteOffset": 160272,
      "componentType": 5126,
      "count": 260,
      "max": [
        1.7362408638000488,
        0.94713914394378662,
        1.2392934678473466e-08
      ],
      "min": [
        -1.7362408638000488,
        -3.4596700668334961,
        -0.049244765192270279
      ],
      "type": "VEC3"
    },
    {
      "bufferView": 2,
      "byteOffset": 163392,
      "componentType": 5126,
      "count": 260,
      "max": [
        0.99533331394195557,
        0.99580490589141846,
        1
      ],
      "min": [
        -0.99615252017974854,
        -0.99581813812255859,
        -0.023635838180780411
      ],
      "type": "VEC3"
    },
    {
      "bufferView": 1,
      "byteOffset": 53424,
      "componentType": 5126,
      "count": 260,
      "max": [
        0.92720514535903931,
        0.92207694053649902
      ],
      "min": [
        0.0010000000474974513,
        0.0010000000474974513
      ],
      "type": "VEC2"
    },
    {
      "bufferView": 0,
      "byteOffset": 42888,
      "componentType": 5125,
      "count": 576,
      "max": [
        259
      ],
      "min": [
        0
      ],
      "type": "SCALAR"
    },
    {
      "bufferView": 2,
      "byteOffset": 166512,
      "componentType": 5126,
      "count": 2560,
      "max": [
        0.36184397339820862,
        6.0023107528686523,
        0.13053871691226959
      ],
      "min": [
        -0.48204723000526428,
        -3.622269868850708,
        -0.53137689828872681
      ],
      "type": "VEC3"
    },
    {
      "bufferView": 2,
      "byteOffset": 197232,
      "componentType": 5126,
      "count": 2560,
      "max": [
        1,
        1,
        1
      ],
      "min": [
        -1,
        -1,
        -1
      ],
      "type": "VEC3"
    },
    {
      "bufferView": 1,
      "byteOffset": 55504,
      "componentType": 5126,
      "count": 2560,
      "max": [
        0.99900001287460327,
        0.99387180805206299
      ],
      "min": [
        0.062538459897041321,
        0.0010000000474974513
      ],
      "type": "VEC2"
    },
    {
      "bufferView": 0,
      "byteOffset": 45192,
      "componentType": 5125,
      "count": 3960,
      "max": [
        2559
      ],
      "min": [
        0
      ],
      "type": "SCALAR"
    },
    {
      "bufferView": 2,
      "byteOffset": 227952,
      "componentType": 5126,
      "count": 1620,
      "max": [
        0.49198684096336365,
        5.8109054565429688,
        0.086850881576538086
      ],
      "min": [
        -0.49198681116104126,
        4.7944936752319336,
        -0.35983529686927795
      ],
      "type": "VEC3"
    },
    {
      "bufferView": 2,
      "byteOffset": 247392,
      "componentType": 5126,
      "count": 1620,
      "max": [
        1,
        0.98724538087844849,
        0.99983674287796021
      ],
      "min": [
        -1,
        -0.98724740743637085,
        -0.99983668327331543
      ],
      "type": "VEC3"
    },
    {
      "bufferView": 1,
      "byteOffset": 75984,
      "componentType": 5126,
      "count": 1620,
      "max": [
        0.98874360322952271,
        0.98874360322952271
      ],
      "min": [
        0.0010000000474974513,
        0.0010000000474974513
      ],
      "type": "VEC2"
    },
    {
      "bufferView": 0,
      "byteOffset": 61032,
      "componentType": 5125,
      "count": 2592,
      "max": [
        1619
      ],
      "min": [
        0
      ],
      "type": "SCALAR"
    },
    {
      "bufferView": 2,
      "byteOffset": 266832,
      "componentType": 5126,
      "count": 192,
      "max": [
        0.20449119806289673,
        5.6720318794250488,
        0.13053871691226959
      ],
      "min": [
        -0.29041808843612671,
        -1.886579155921936,
        -0.101556196808815
      ],
      "type": "VEC3"
    },
    {
      "bufferView": 2,
      "byteOffset": 269136,
      "componentType": 5126,
      "count": 192,
      "max": [
        0.70816993713378906,
        0.20220695436000824,
        0.7069973349571228
      ],
      "min": [
        -0.70816844701766968,
        -0.20226794481277466,
        -0.70699787139892578
      ],
      "type": "VEC3"
    },
    {
      "bufferView": 1,
      "byteOffset": 88944,
      "componentType": 5126,
      "count": 192,
      "max": [
        0.96310257911682129,
        0.96823078393936157
      ],
      "min": [
        0.0010000000474974513,
        0.0010000000474974513
      ],
      "type": "VEC2"
    },
    {
      "bufferView": 0,
      "byteOffset": 71400,
      "componentType": 5125,
      "count": 288,
      "max": [
        191
      ],
      "min": [
        0
      ],
      "type": "SCALAR"
    },
    {
      "bufferView": 2,
      "byteOffset": 271440,
      "componentType": 5126,
      "count": 382,
      "max": [
        1.050904393196106,
        0.00646209716796875,
        0.020943980664014816
      ],
      "min": [
        0.2505110502243042,
        -1.4741562604904175,
        -0.014500078745186329
      ],
      "type": "VEC3"
    },
    {
      "bufferView": 2,
      "byteOffset": 276024,
      "componentType": 5126,
      "count": 382,
      "max": [
        0.99917739629745483,
        0.9454997181892395,
        0.99999982118606567
      ],
      "min": [
        -0.99689048528671265,
        -0.99784207344055176,
        -0.99999988079071045
      ],
      "type": "VEC3"
    },
    {
      "bufferView": 1,
      "byteOffset": 90480,
      "componentType": 5126,
      "count": 382,
      "max": [
        0.99387180805206299,
        0.97848719358444214
      ],
      "min": [
        0.16510257124900818,
        0.16510257124900818
      ],
      "type": "VEC2"
    },
    {
      "bufferView": 0,
      "byteOffset": 72552,
      "componentType": 5125,
      "count": 666,
      "max": [
        381
      ],
      "min": [
        0
      ],
      "type": "SCALAR"
    }
  ],
  "asset": {
    "extras": {
      "author": "Igor Bistritski (https://sketchfab.com/discodancer)",
      "license": "CC-BY-4.0 (http://creativecommons.org/licenses/by/4.0/)",
      "source": "https://sketchfab.com/3d-models/dd-acoustic-guitar-4eeb8f55c0de4521af948a343094baa4",
      "title": "DD Acoustic Guitar"
    },
    "generator": "Sketchfab-10.15.0",
    "version": "2.0"
  },
  "bufferViews": [
    {
      "buffer": 0,
      "byteLength": 75216,
      "byteOffset": 0,
      "name": "floatBufferViews",
      "target": 34963
    },
    {
      "buffer": 0,
      "byteLength": 93536,
      "byteOffset": 75216,
      "byteStride": 8,
      "name": "floatBufferViews",
      "target": 34962
    },
    {
      "buffer": 0,
      "byteLength": 280608,
      "byteOffset": 168752,
      "byteStride": 12,
      "name": "floatBufferViews",
      "target": 34962
    }
  ],
  "buffers": [
    {
      "byteLength": 449360,
      "uri": "scene.bin"
    }
  ],
  "materials": [
    {
      "doubleSided": true,
      "emissiveFactor": [
        0,
        0,
        0
      ],
      "name": "dark_brown",
      "pbrMetallicRoughness": {
        "baseColorFactor": [
          0.080011799999999994,
          0.0407012,
          0.0290405,
          1
        ],
        "metallicFactor": 0,
        "roughnessFactor": 1
      }
    },
    {
      "doubleSided": true,
      "emissiveFactor": [
        0,
        0,
        0
      ],
      "name": "white",
      "pbrMetallicRoughness": {
        "baseColorFactor": [
          0.626664,
          0.60804400000000003,
          0.60804400000000003,
          1
        ],
        "metallicFactor": 0,
        "roughnessFactor": 0.91147725879999997
      }
    },
    {
      "doubleSided": true,
      "emissiveFactor": [
        0,
        0,
        0
      ],
      "name": "black",
      "pbrMetallicRoughness": {
        "baseColorFactor": [
          0,
          0,
          0,
          1
        ],
        "metallicFactor": 0,
        "roughnessFactor": 1
      }
    },
    {
      "doubleSided": true,
      "emissiveFactor": [
        0,
        0,
        0
      ],
      "name": "Material.001",
      "pbrMetallicRoughness": {
        "baseColorFactor": [
          0.69819299999999995,
          0.37195499999999998,
          0.103274,
          1
        ],
        "metallicFactor": 0,
        "roughnessFactor": 0.89825299530000002
      }
    },
    {
      "doubleSided": true,
      "emissiveFactor": [
        0,
        0,
        0
      ],
      "name": "Material.003",
      "pbrMetallicRoughness": {
        "baseColorFactor": [
          0.58146399999999998,
          0.58146399999999998,
          0.58146399999999998,
          1
        ],
        "metallicFactor": 0.56716615289203443,
        "roughnessFactor": 0.20178726690136128
      }
    },
    {
      "doubleSided": true,
      "emissiveFactor": [
        0,
        0,
        0
      ],
      "name": "towers",
      "pbrMetallicRoughness": {
        "baseColorFactor": [
          1,
          1,
          1,
          1
        ],
        "metallicFactor": 1,
        "roughnessFactor": 0.17746657424803458
      }
    },
    {
      "doubleSided": true,
      "emissiveFactor": [
        0,
        0,
        0
      ],
      "name": "yellow_strung",
      "pbrMetallicRoughness": {
        "baseColorFactor": [
          0.626664,
          0.357375,
          0.14235200000000001,
          1
        ],
        "metallicFactor": 1,
        "roughnessFactor": 0.6334795614979114
      }
    },
    {
      "doubleSided": true,
      "emissiveFactor": [
        0,
        0,
        0
      ],
      "name": "black_glossy",
      "pbrMetallicRoughness": {
        "baseColorFactor": [
          0.0056047199999999997,
          0.0056047199999999997,
          0.0056047199999999997,
          1
        ],
        "metallicFactor": 0,
        "roughnessFactor": 0.99832788480000001
      }
    }
  ],
  "meshes": [
    {
      "name": "Plane_dark brown_0",
      "primitives": [
        {
          "attributes": {
            "NORMAL": 1,
            "POSITION": 0,
            "TEXCOORD_0": 2
          },
          "indices": 3,
          "material": 0,
          "mode": 4
        }
      ]
    },
    {
      "name": "Plane_white_0",
      "primitives": [
        {
          "attributes": {
            "NORMAL": 5,
            "POSITION": 4,
            "TEXCOORD_0": 6
          },
          "indices": 7,
          "material": 1,
          "mode": 4
        }
      ]
    },
    {
      "name": "Plane_black_0",
      "primitives": [
        {
          "attributes": {
            "NORMAL": 9,
            "POSITION": 8,
            "TEXCOORD_0": 10
          },
          "indices": 11,
          "material": 2,
          "mode": 4
        }
      ]
    },
    {
      "name": "Plane_Material.001_0",
      "primitives": [
        {
          "attributes": {
            "NORMAL": 13,
            "POSITION": 12,
            "TEXCOORD_0": 14
          },
          "indices": 15,
          "material": 3,
          "mode": 4
        }
      ]
    },
    {
      "name": "Plane_Material.003_0",
      "primitives": [
        {
          "attributes": {
            "NORMAL": 17,
            "POSITION": 16,
            "TEXCOORD_0": 18
          },
          "indices": 19,
          "material": 4,
          "mode": 4
        }
      ]
    },
    {
      "name": "Plane_towers_0",
      "primitives": [
        {
          "attributes": {
            "NORMAL": 21,
            "POSITION": 20,
            "TEXCOORD_0": 22
          },
          "indices": 23,
          "material": 5,
          "mode": 4
        }
      ]
    },
    {
      "name": "Plane_yellow strung_0",
      "primitives": [
        {
          "attributes": {
            "NORMAL": 25,
            "POSITION": 24,
            "TEXCOORD_0": 26
          },
          "indices": 27,
          "material": 6,
          "mode": 4
        }
      ]
    },
    {
      "name": "Plane_black_glossy_0",
      "primitives": [
        {
          "attributes": {
            "NORMAL": 29,
            "POSITION": 28,
            "TEXCOORD_0": 30
          },
          "indices": 31,
          "material": 7,
          "mode": 4
        }
      ]
    }
  ],
  "nodes": [
    {
      "children": [
        1
      ],
      "name": "RootNode (gltf orientation matrix)",
      "rotation": [
        -0.70710678118654746,
        -0,
        -0,
        0.70710678118654757
      ]
    },
    {
      "children": [
        2
      ],
      "name": "RootNode (model correction matrix)"
    },
    {
      "children": [
        3
      ],
      "matrix": [
        1,
        0,
        0,
        0,
        0,
        0,
        1,
        0,
        0,
        -1,
        0,
        0,
        0,
        0,
        0,
        1
      ],
      "name": "4588fd3679e44725ba7ad22b33b2fbfd.fbx"
    },
    {
      "children": [
        4
      ],
      "name": "RootNode"
    },
    {
      "children": [
        5,
        6,
        7,
        8,
        9,
        10,
        11,
        12
      ],
      "matrix": [
        98.602143989451719,
        -16.64937329982412,
        0.64464673002656814,
        0,
        15.809150350331672,
        92.264105808852094,
        -35.176753952215442,
        0,
        5.2619319406335148,
        34.786949407590633,
        93.606518059192183,
        0,
        -3.7252902984619141e-07,
        345.93780517578125,
        -43.351078033447266,
        1
      ],
      "name": "Plane"
    },
    {
      "mesh": 0,
      "name": "Plane_dark brown_0"
    },
    {
      "mesh": 1,
      "name": "Plane_white_0"
    },
    {
      "mesh": 2,
      "name": "Plane_black_0"
    },
    {
      "mesh": 3,
      "name": "Plane_Material.001_0"
    },
    {
      "mesh": 4,
      "name": "Plane_Material.003_0"
    },
    {
      "mesh": 5,
      "name": "Plane_towers_0"
    },
    {
      "mesh": 6,
      "name": "Plane_yellow strung_0"
    },
    {
      "mesh": 7,
      "name": "Plane_black_glossy_0"
    }
  ],
  "scene": 0,
  "scenes": [
    {
      "name": "OSG_Scene",
      "nodes": [
        0
      ]
    }
  ]
}

