<svg width="100" height="877" viewBox="0 0 100 877" fill="none" xmlns="http://www.w3.org/2000/svg">
<rect y="562" width="100" height="315" fill="#C79760"/>
<mask id="mask0" mask-type="alpha" maskUnits="userSpaceOnUse" x="0" y="562" width="100" height="305">
<rect y="562" width="100" height="305" fill="url(#paint0_linear)"/>
</mask>
<g mask="url(#mask0)">
<ellipse cx="50" cy="785.033" rx="79" ry="80.0326" fill="white"/>
<ellipse cx="50" cy="785.033" rx="79" ry="80.0326" fill="white"/>
<g filter="url(#filter0_i)">
<ellipse cx="50" cy="785.033" rx="71" ry="71.9281" fill="#241310"/>
</g>
</g>
<path d="M86.8071 723L84.178 143.724H15.8217L13.1926 723H86.8071Z" fill="url(#paint1_linear)"/>
<mask id="mask1" mask-type="alpha" maskUnits="userSpaceOnUse" x="13" y="144" width="74" height="733">
<path d="M87 877L84.3571 144H15.6429L13 877H87Z" fill="#C4C4C4"/>
</mask>
<g mask="url(#mask1)">
<g filter="url(#filter1_d)">
<rect width="2.07251" height="96.8898" transform="matrix(0 -1 -1 0 96.2104 183.48)" fill="url(#paint2_linear)"/>
<rect width="2.07251" height="96.8898" transform="matrix(0 -1 -1 0 96.2104 225.545)" fill="url(#paint3_linear)"/>
<rect width="2.07251" height="96.8898" transform="matrix(0 -1 -1 0 96.2104 265.857)" fill="url(#paint4_linear)"/>
<rect width="2.07251" height="96.8898" transform="matrix(0 -1 -1 0 96.2104 304.418)" fill="url(#paint5_linear)"/>
<rect width="2.07251" height="96.8898" transform="matrix(0 -1 -1 0 96.2104 339.472)" fill="url(#paint6_linear)"/>
<rect width="2.07251" height="96.8898" transform="matrix(0 -1 -1 0 96.2104 373.65)" fill="url(#paint7_linear)"/>
<rect width="2.07251" height="96.8898" transform="matrix(0 -1 -1 0 96.2104 405.199)" fill="url(#paint8_linear)"/>
<rect width="2.07251" height="96.8898" transform="matrix(0 -1 -1 0 96.2104 434.996)" fill="url(#paint9_linear)"/>
<rect width="2.07251" height="96.8898" transform="matrix(0 -1 -1 0 96.2104 463.916)" fill="url(#paint10_linear)"/>
<rect width="2.07251" height="96.8898" transform="matrix(0 -1 -1 0 96.4471 490.207)" fill="url(#paint11_linear)"/>
<rect width="2.07251" height="96.8898" transform="matrix(0 -1 -1 0 96.4471 515.621)" fill="url(#paint12_linear)"/>
<rect width="2.07251" height="96.8898" transform="matrix(0 -1 -1 0 96.2104 540.16)" fill="url(#paint13_linear)"/>
<rect width="2.07251" height="96.8898" transform="matrix(0 -1 -1 0 96.2104 562.069)" fill="url(#paint14_linear)"/>
<rect width="2.07251" height="96.8898" transform="matrix(0 -1 -1 0 96.2104 583.101)" fill="url(#paint15_linear)"/>
<rect width="2.07251" height="96.8898" transform="matrix(0 -1 -1 0 96.2104 603.258)" fill="url(#paint16_linear)"/>
<rect width="2.07251" height="96.8898" transform="matrix(0 -1 -1 0 96.2104 622.538)" fill="url(#paint17_linear)"/>
<rect width="2.07251" height="96.8898" transform="matrix(0 -1 -1 0 96.2104 640.065)" fill="url(#paint18_linear)"/>
<rect width="2.07251" height="96.8898" transform="matrix(0 -1 -1 0 96.2104 656.716)" fill="url(#paint19_linear)"/>
<rect width="2.07251" height="96.8898" transform="matrix(0 -1 -1 0 96.2104 672.49)" fill="url(#paint20_linear)"/>
<rect width="2.07251" height="96.8898" transform="matrix(0 -1 -1 0 96.2104 687.389)" fill="url(#paint21_linear)"/>
<rect width="2.07251" height="96.8898" transform="matrix(0 -1 -1 0 96.2104 702.287)" fill="url(#paint22_linear)"/>
<rect width="2.07251" height="96.8898" transform="matrix(0 -1 -1 0 96.4469 715.432)" fill="url(#paint23_linear)"/>
</g>
<g filter="url(#filter2_i)">
<circle r="2.86783" transform="matrix(0 -1 -1 0 50.3205 245.244)" fill="#E8E7F2" stroke="#503736"/>
<circle r="2.86783" transform="matrix(0 -1 -1 0 50.3205 321.488)" fill="#E8E7F2" stroke="#503736"/>
<circle r="2.86783" transform="matrix(0 -1 -1 0 50.3205 388.968)" fill="#E8E7F2" stroke="#503736"/>
<circle r="2.86783" transform="matrix(0 -1 -1 0 50.3205 449.436)" fill="#E8E7F2" stroke="#503736"/>
<circle r="2.86783" transform="matrix(0 -1 -1 0 49.2844 593.16)" fill="#E8E7F2" stroke="#503736"/>
<circle r="2.86783" transform="matrix(0 -1 -1 0 49.2844 630.844)" fill="#E8E7F2" stroke="#503736"/>
<circle r="2.86783" transform="matrix(0 -1 -1 0 49.385 664.146)" fill="#E8E7F2" stroke="#503736"/>
<circle r="2.86783" transform="matrix(0 -1 -1 0 49.385 693.942)" fill="#E8E7F2" stroke="#503736"/>
<circle r="2.86783" transform="matrix(0 -1 -1 0 36.2395 527.433)" fill="#E8E7F2" stroke="#503736"/>
<circle r="2.86783" transform="matrix(0 -1 -1 0 62.407 527.433)" fill="#E8E7F2" stroke="#503736"/>
</g>
</g>
<g filter="url(#filter3_d)">
<path d="M84.1781 143.724L83.6356 137.589H16.3643L15.8218 143.724H84.1781Z" fill="url(#paint24_linear)"/>
</g>
<g filter="url(#filter4_i)">
<path d="M7.93457 11.5168H92.0655V118.276L83.3023 132.601L83.6446 137.589H16.3563L16.6986 132.601L7.93457 118.276V11.5168Z" fill="url(#paint25_linear)"/>
<path d="M87.7189 28.3267C87.7189 43.9711 71.7829 56.6534 52.125 56.6534C32.4671 56.6534 16.5312 43.9711 16.5312 28.3267C16.5312 12.6823 32.4671 0 52.125 0C71.7829 0 87.7189 12.6823 87.7189 28.3267Z" fill="url(#paint26_linear)"/>
<path d="M29.5066 12.3752C29.5066 15.9308 24.6775 18.8131 18.7206 18.8131C12.7636 18.8131 7.93457 15.0724 7.93457 11.5168C7.93457 7.96127 12.7636 5.93732 18.7206 5.93732C24.6775 5.93732 29.5066 8.81966 29.5066 12.3752Z" fill="url(#paint27_linear)"/>
<path d="M92.0655 11.5168C92.0655 15.0724 87.2364 18.8131 81.2794 18.8131C75.3225 18.8131 70.4934 15.9308 70.4934 12.3752C70.4934 8.81966 75.3225 5.93732 81.2794 5.93732C87.2364 5.93732 92.0655 7.96127 92.0655 11.5168Z" fill="url(#paint28_linear)"/>
</g>
<g filter="url(#filter5_i)">
<path fill-rule="evenodd" clip-rule="evenodd" d="M61.3934 42.6263C61.3934 38.7603 64.5274 35.6263 68.3934 35.6263H71.9207C75.7867 35.6263 78.9207 38.7603 78.9207 42.6263V48.5092H61.3934V42.6263ZM39.4838 48.5092V42.6269C39.4838 38.7609 36.3498 35.6269 32.4838 35.6269H28.9565C25.0905 35.6269 21.9565 38.7609 21.9565 42.6269V48.5092H39.4838ZM21.9565 51.9947H39.4838V75.3713H21.9565V51.9947ZM21.9565 78.8567V104.641H39.4838V78.8567H21.9565ZM61.3934 78.8567V104.641H78.9207V78.8567H61.3934ZM78.9207 75.3713V51.9947H61.3934V75.3713H78.9207ZM78.9207 108.127H61.3934V113.938C61.3934 117.804 64.5274 120.938 68.3934 120.938H71.9207C75.7867 120.938 78.9207 117.804 78.9207 113.938V108.127ZM39.4838 108.127H21.9565V113.939C21.9565 117.805 25.0905 120.939 28.9565 120.939H32.4838C36.3498 120.939 39.4838 117.805 39.4838 113.939V108.127Z" fill="#241310"/>
</g>
<path d="M27.2715 24.9707C27.2871 24.998 27.2949 25.0312 27.2949 25.0703C27.2949 25.1289 27.2734 25.1797 27.2305 25.2227C27.1914 25.2656 27.1387 25.2871 27.0723 25.2871C27.0293 25.2871 26.9902 25.2773 26.9551 25.2578C26.9238 25.2383 26.8984 25.209 26.8789 25.1699C26.8047 25.0254 26.7383 24.8457 26.6797 24.6309C26.625 24.4121 26.5762 24.1699 26.5332 23.9043C26.4941 23.6387 26.4609 23.3535 26.4336 23.0488C26.4102 22.7402 26.3906 22.4219 26.375 22.0937C26.082 22.1328 25.752 22.1758 25.3848 22.2227C25.0215 22.2695 24.6055 22.3242 24.1367 22.3867C23.8086 22.4336 23.4746 22.4746 23.1348 22.5098C22.2988 23.4199 21.418 24.1113 20.4922 24.584C19.5703 25.0527 18.6445 25.2871 17.7148 25.2871C17.3008 25.2871 16.9414 25.2461 16.6367 25.1641C16.3359 25.0859 16.0859 24.998 15.8867 24.9004C15.6914 24.7988 15.5449 24.7051 15.4473 24.6191C15.3457 24.5332 15.291 24.4863 15.2832 24.4785C15.2441 24.4395 15.2246 24.3887 15.2246 24.3262C15.2246 24.2637 15.2461 24.2109 15.2891 24.168C15.332 24.125 15.3828 24.1035 15.4414 24.1035C15.5078 24.1035 15.5625 24.127 15.6055 24.1738C15.6133 24.1816 15.6602 24.2227 15.7461 24.2969C15.832 24.3672 15.959 24.4434 16.127 24.5254C16.2988 24.6074 16.5156 24.6816 16.7773 24.748C17.0391 24.8145 17.3496 24.8477 17.709 24.8477C18.2012 24.8477 18.6719 24.7812 19.1211 24.6484C19.5703 24.5156 19.9941 24.3437 20.3926 24.1328C20.7949 23.918 21.168 23.6738 21.5117 23.4004C21.8594 23.127 22.1738 22.8496 22.4551 22.5684C22.1777 22.5918 21.9023 22.6094 21.6289 22.6211C21.3555 22.6328 21.0859 22.6387 20.8203 22.6387C20.2969 22.6387 19.7988 22.6094 19.3262 22.5508C18.8535 22.4922 18.4375 22.3945 18.0781 22.2578C17.7188 22.1172 17.4316 21.9316 17.2168 21.7012C17.0059 21.4707 16.9004 21.1836 16.9004 20.8398C16.9004 20.6836 16.9316 20.5273 16.9941 20.3711C17.0605 20.2148 17.1387 20.0742 17.2285 19.9492C17.3184 19.8203 17.4121 19.7168 17.5098 19.6387C17.6074 19.5566 17.6914 19.5156 17.7617 19.5156C17.8164 19.5156 17.8672 19.5352 17.9141 19.5742C17.9609 19.6133 17.9844 19.666 17.9844 19.7324C17.9844 19.7676 17.9766 19.8027 17.9609 19.8379C17.9453 19.8691 17.9219 19.8945 17.8906 19.9141C17.8828 19.9219 17.8496 19.9492 17.791 19.9961C17.7324 20.043 17.6699 20.1074 17.6035 20.1895C17.5371 20.2676 17.4766 20.3633 17.4219 20.4766C17.3672 20.5859 17.3398 20.7051 17.3398 20.834C17.3398 21.0566 17.416 21.2539 17.5684 21.4258C17.7246 21.5937 17.9492 21.7363 18.2422 21.8535C18.5391 21.9668 18.9023 22.0527 19.332 22.1113C19.7617 22.1699 20.252 22.1992 20.8027 22.1992C21.1191 22.1992 21.4531 22.1895 21.8047 22.1699C22.1563 22.1504 22.5273 22.1211 22.918 22.082C23.1055 21.875 23.2715 21.6797 23.416 21.4961C23.5605 21.3125 23.6836 21.1484 23.7852 21.0039C23.9531 20.7656 24.1289 20.5117 24.3125 20.2422C24.4961 19.9727 24.6777 19.6992 24.8574 19.4219C25.041 19.1445 25.2188 18.8711 25.3906 18.6016C25.5664 18.3281 25.7305 18.0723 25.8828 17.834C26.0352 17.5918 26.1719 17.373 26.293 17.1777C26.4141 16.9785 26.5137 16.8145 26.5918 16.6855C26.6152 16.5801 26.6504 16.4844 26.6973 16.3984C26.7441 16.3086 26.8203 16.2637 26.9258 16.2637C26.9844 16.2637 27.041 16.2891 27.0957 16.3398C27.1504 16.3867 27.1777 16.4473 27.1777 16.5215C27.1777 16.5762 27.1582 16.6348 27.1191 16.6973C27.0801 16.7598 27.043 16.8125 27.0078 16.8555C26.9961 16.9297 26.9766 17.0879 26.9492 17.3301C26.9258 17.5723 26.9004 17.8691 26.873 18.2207C26.8496 18.5684 26.8281 18.9531 26.8086 19.375C26.793 19.793 26.7852 20.2168 26.7852 20.6465C26.7852 20.8066 26.7852 20.9648 26.7852 21.1211C26.7852 21.2773 26.7891 21.4355 26.7969 21.5957C27.3828 21.5215 27.8105 21.4707 28.0801 21.4434C28.3496 21.4121 28.4922 21.3965 28.5078 21.3965C28.5586 21.3965 28.6074 21.418 28.6543 21.4609C28.7051 21.5 28.7305 21.5527 28.7305 21.6191C28.7305 21.6738 28.7109 21.7227 28.6719 21.7656C28.6367 21.8047 28.5898 21.8281 28.5313 21.8359C28.4609 21.8437 28.3789 21.8535 28.2852 21.8652C28.1914 21.877 28.0762 21.8906 27.9395 21.9062C27.8027 21.9219 27.6426 21.9414 27.459 21.9648C27.2754 21.9844 27.0605 22.0098 26.8145 22.041C26.8262 22.3613 26.8438 22.6699 26.8672 22.9668C26.8945 23.2598 26.9258 23.5332 26.9609 23.7871C27 24.041 27.0449 24.2695 27.0957 24.4727C27.1465 24.6758 27.2051 24.8418 27.2715 24.9707ZM24.0781 21.9473C24.5391 21.8848 24.957 21.8301 25.332 21.7832C25.7109 21.7324 26.0527 21.6875 26.3574 21.6484C26.3535 21.4805 26.3496 21.3125 26.3457 21.1445C26.3457 20.9766 26.3457 20.8066 26.3457 20.6348C26.3457 20.084 26.3555 19.5586 26.375 19.0586C26.3945 18.5547 26.4219 18.1172 26.457 17.7461C26.3008 17.9922 26.127 18.2656 25.9355 18.5664C25.748 18.8633 25.5527 19.168 25.3496 19.4805C25.1465 19.7891 24.9414 20.0957 24.7344 20.4004C24.5273 20.7051 24.3301 20.9902 24.1426 21.2559C24.0488 21.3887 23.9531 21.5176 23.8555 21.6426C23.7578 21.7676 23.6602 21.8906 23.5625 22.0117C23.6484 22.0039 23.7324 21.9941 23.8145 21.9824C23.9004 21.9707 23.9883 21.959 24.0781 21.9473ZM29.9023 24.4785C29.9609 24.3613 30.0352 24.2168 30.125 24.0449C30.2188 23.8691 30.3145 23.6934 30.4121 23.5176C30.5137 23.3418 30.6113 23.1758 30.7051 23.0195C30.8027 22.8633 30.8848 22.7441 30.9512 22.6621C31.0645 22.5254 31.1816 22.4277 31.3027 22.3691C31.4238 22.3105 31.5352 22.2812 31.6367 22.2812C31.7383 22.2812 31.8242 22.3027 31.8945 22.3457C31.9688 22.3887 32.0293 22.4473 32.0762 22.5215C32.123 22.5918 32.1582 22.6758 32.1816 22.7734C32.2051 22.8672 32.2168 22.9687 32.2168 23.0781C32.2168 23.1406 32.2129 23.2227 32.2051 23.3242C32.2012 23.4258 32.1953 23.5352 32.1875 23.6523C32.1836 23.7695 32.1777 23.8906 32.1699 24.0156C32.166 24.1406 32.1621 24.2578 32.1582 24.3672C32.2168 24.25 32.2832 24.1211 32.3574 23.9805C32.4316 23.8359 32.5059 23.6934 32.5801 23.5527C32.6582 23.4121 32.7324 23.2812 32.8027 23.1602C32.873 23.0352 32.9375 22.9336 32.9961 22.8555C33.1641 22.625 33.3203 22.4707 33.4648 22.3926C33.6133 22.3145 33.7441 22.2754 33.8574 22.2754C33.9902 22.2754 34.0996 22.3008 34.1855 22.3516C34.2715 22.3984 34.3379 22.4609 34.3848 22.5391C34.4355 22.6133 34.4707 22.6973 34.4902 22.791C34.5098 22.8848 34.5195 22.9746 34.5195 23.0605C34.5195 23.1934 34.5098 23.332 34.4902 23.4766C34.4707 23.6211 34.4609 23.793 34.4609 23.9922C34.4609 24.0742 34.4648 24.1562 34.4727 24.2383C34.4805 24.3203 34.4961 24.3926 34.5195 24.4551C34.5469 24.5176 34.5879 24.5684 34.6426 24.6074C34.6973 24.6465 34.7715 24.666 34.8652 24.666C34.9668 24.666 35.0664 24.6406 35.1641 24.5898C35.2617 24.5352 35.3555 24.4648 35.4453 24.3789C35.5352 24.293 35.6191 24.1953 35.6973 24.0859C35.7793 23.9766 35.8535 23.8672 35.9199 23.7578C35.9863 23.6484 36.0449 23.5449 36.0957 23.4473C36.1465 23.3457 36.1875 23.2598 36.2188 23.1895C36.2383 23.1465 36.2656 23.1133 36.3008 23.0898C36.3359 23.0664 36.375 23.0547 36.418 23.0547C36.4844 23.0547 36.5371 23.0801 36.5762 23.1309C36.6191 23.1777 36.6406 23.2285 36.6406 23.2832C36.6406 23.3105 36.6348 23.3379 36.623 23.3652C36.6074 23.3965 36.5762 23.4629 36.5293 23.5645C36.4824 23.6621 36.4199 23.7754 36.3418 23.9043C36.2637 24.0293 36.1719 24.1621 36.0664 24.3027C35.9648 24.4434 35.8516 24.5742 35.7266 24.6953C35.6016 24.8125 35.4668 24.9102 35.3223 24.9883C35.1777 25.0625 35.0254 25.0996 34.8652 25.0996C34.6934 25.0996 34.5527 25.0684 34.4434 25.0059C34.3379 24.9473 34.252 24.8672 34.1855 24.7656C34.123 24.6641 34.0801 24.5469 34.0566 24.4141C34.0332 24.2812 34.0215 24.1426 34.0215 23.998C34.0215 23.8066 34.0313 23.6309 34.0508 23.4707C34.0703 23.3066 34.0801 23.1797 34.0801 23.0898C34.0801 22.9922 34.0703 22.918 34.0508 22.8672C34.0352 22.8164 34.0137 22.7812 33.9863 22.7617C33.9629 22.7383 33.9395 22.7266 33.916 22.7266C33.8926 22.7227 33.875 22.7207 33.8633 22.7207C33.7695 22.7207 33.6699 22.7734 33.5645 22.8789C33.4629 22.9805 33.3574 23.1172 33.248 23.2891C33.1387 23.4609 33.0254 23.6562 32.9082 23.875C32.7949 24.0937 32.6797 24.3164 32.5625 24.543C32.4961 24.668 32.4395 24.7715 32.3926 24.8535C32.3496 24.9355 32.3066 25 32.2637 25.0469C32.2246 25.0937 32.1855 25.127 32.1465 25.1465C32.1074 25.166 32.0645 25.1758 32.0176 25.1758C31.916 25.1758 31.8379 25.1406 31.7832 25.0703C31.7324 25 31.707 24.9082 31.707 24.7949C31.707 24.7363 31.709 24.6582 31.7129 24.5605C31.7168 24.4629 31.7207 24.3555 31.7246 24.2383C31.7285 24.1211 31.7344 24 31.7422 23.875C31.75 23.75 31.7559 23.6309 31.7598 23.5176C31.7637 23.4004 31.7676 23.2969 31.7715 23.207C31.7754 23.1172 31.7773 23.0488 31.7773 23.002C31.7773 22.9004 31.7598 22.8281 31.7246 22.7852C31.6895 22.7383 31.6484 22.7148 31.6016 22.7148C31.5586 22.7148 31.5098 22.7305 31.4551 22.7617C31.4043 22.793 31.3438 22.8535 31.2734 22.9434C31.2188 23.0137 31.1484 23.1172 31.0625 23.2539C30.9805 23.3867 30.8926 23.5352 30.7988 23.6992C30.7051 23.8633 30.6113 24.0312 30.5176 24.2031C30.4277 24.375 30.3496 24.5293 30.2832 24.666C30.2012 24.8301 30.1191 24.9414 30.0371 25C29.9551 25.0625 29.875 25.0937 29.7969 25.0937C29.6836 25.0937 29.5996 25.0605 29.5449 24.9941C29.4902 24.9238 29.4629 24.832 29.4629 24.7187C29.4629 24.707 29.4648 24.6367 29.4688 24.5078C29.4766 24.3789 29.4844 24.2227 29.4922 24.0391C29.5 23.8516 29.5078 23.6523 29.5156 23.4414C29.5273 23.2305 29.5371 23.0332 29.5449 22.8496C29.5488 22.752 29.5449 22.6621 29.5332 22.5801C29.5215 22.498 29.5059 22.4492 29.4863 22.4336C29.4551 22.4414 29.3926 22.5137 29.2988 22.6504C29.209 22.7871 29.0938 23.0254 28.9531 23.3652C28.9336 23.4082 28.9043 23.4414 28.8652 23.4648C28.8262 23.4883 28.7852 23.5 28.7422 23.5C28.6758 23.5 28.623 23.4785 28.584 23.4355C28.5449 23.3887 28.5254 23.3359 28.5254 23.2773C28.5254 23.25 28.5313 23.2207 28.543 23.1895C28.7188 22.7715 28.8867 22.4648 29.0469 22.2695C29.207 22.0703 29.3633 21.9707 29.5156 21.9707C29.6055 21.9707 29.6797 21.9922 29.7383 22.0352C29.8008 22.0742 29.8496 22.127 29.8848 22.1934C29.9199 22.2559 29.9453 22.3281 29.9609 22.4102C29.9766 22.4922 29.9844 22.5723 29.9844 22.6504C29.9844 22.998 29.9746 23.3164 29.9551 23.6055C29.9395 23.8945 29.9219 24.1855 29.9023 24.4785ZM40.7539 23.3652C40.7383 23.3965 40.7051 23.4629 40.6543 23.5645C40.6074 23.6621 40.5449 23.7754 40.4668 23.9043C40.3926 24.0332 40.3047 24.168 40.2031 24.3086C40.1016 24.4492 39.9883 24.5781 39.8633 24.6953C39.7383 24.8125 39.6035 24.9102 39.459 24.9883C39.3145 25.0625 39.1621 25.0996 39.002 25.0996C38.7754 25.0996 38.584 25.0273 38.4277 24.8828C38.2754 24.7383 38.1641 24.5566 38.0938 24.3379C37.9609 24.5605 37.8027 24.7383 37.6191 24.8711C37.4355 25 37.252 25.0645 37.0684 25.0645C36.9238 25.0645 36.793 25.0391 36.6758 24.9883C36.5586 24.9336 36.459 24.8594 36.377 24.7656C36.2949 24.668 36.2305 24.5547 36.1836 24.4258C36.1406 24.2969 36.1191 24.1562 36.1191 24.0039C36.1191 23.6992 36.1699 23.4316 36.2715 23.2012C36.377 22.9668 36.5098 22.7715 36.6699 22.6152C36.8301 22.459 37.0059 22.3418 37.1973 22.2637C37.3926 22.1855 37.5801 22.1465 37.7598 22.1465C37.8809 22.1465 37.9922 22.1641 38.0938 22.1992C38.1953 22.2305 38.2813 22.2656 38.3516 22.3047C38.4258 22.3437 38.4824 22.3809 38.5215 22.416C38.5605 22.4473 38.582 22.4648 38.5859 22.4687C38.6289 22.5195 38.6504 22.5723 38.6504 22.627C38.6504 22.6855 38.6289 22.7383 38.5859 22.7852C38.543 22.8281 38.4922 22.8496 38.4336 22.8496C38.3711 22.8496 38.3184 22.8281 38.2754 22.7852C38.2676 22.7773 38.25 22.7637 38.2227 22.7441C38.1953 22.7207 38.1582 22.6973 38.1113 22.6738C38.0645 22.6504 38.0078 22.6309 37.9414 22.6152C37.8789 22.5957 37.8066 22.5859 37.7246 22.5859C37.6035 22.5859 37.4746 22.6133 37.3379 22.668C37.2012 22.7227 37.0762 22.8086 36.9629 22.9258C36.8496 23.0391 36.7539 23.1836 36.6758 23.3594C36.6016 23.5312 36.5645 23.7363 36.5645 23.9746C36.5645 24.0488 36.5723 24.125 36.5879 24.2031C36.6035 24.2773 36.6309 24.3457 36.6699 24.4082C36.709 24.4707 36.7617 24.5215 36.8281 24.5605C36.8945 24.5996 36.9766 24.6191 37.0742 24.6191C37.1445 24.6191 37.2246 24.5957 37.3145 24.5488C37.4082 24.502 37.4961 24.4297 37.5781 24.332C37.6641 24.2344 37.7402 24.1113 37.8066 23.9629C37.877 23.8145 37.9258 23.6387 37.9531 23.4355C37.9609 23.3809 37.9863 23.3359 38.0293 23.3008C38.0723 23.2617 38.123 23.2422 38.1816 23.2422C38.2363 23.2422 38.2832 23.2637 38.3223 23.3066C38.3652 23.3496 38.3887 23.3984 38.3926 23.4531C38.3965 23.5273 38.4043 23.6328 38.416 23.7695C38.4277 23.9023 38.4531 24.0352 38.4922 24.168C38.5352 24.3008 38.5977 24.416 38.6797 24.5137C38.7617 24.6113 38.875 24.6602 39.0195 24.6602C39.1133 24.6602 39.2051 24.6348 39.2949 24.584C39.3887 24.5332 39.4785 24.4668 39.5645 24.3848C39.6543 24.2988 39.7383 24.2031 39.8164 24.0977C39.8984 23.9883 39.9727 23.8789 40.0391 23.7695C40.1055 23.6602 40.1641 23.5547 40.2148 23.4531C40.2656 23.3516 40.3086 23.2637 40.3438 23.1895C40.3633 23.1465 40.3906 23.1133 40.4258 23.0898C40.4648 23.0664 40.5059 23.0547 40.5488 23.0547C40.6152 23.0547 40.668 23.0801 40.707 23.1309C40.75 23.1777 40.7715 23.2285 40.7715 23.2832C40.7715 23.3105 40.7656 23.3379 40.7539 23.3652ZM45.0957 19.1348C45.0957 19.1973 45.0742 19.248 45.0313 19.2871C44.9883 19.3223 44.9355 19.3398 44.873 19.3398L41.9023 19.3398L41.9023 19.4043C41.9023 19.6426 41.8848 19.8965 41.8496 20.166C41.8145 20.4355 41.7656 20.7051 41.7031 20.9746C41.6445 21.2402 41.5762 21.5 41.498 21.7539C41.4238 22.0078 41.3457 22.2422 41.2637 22.457C41.1855 22.6719 41.1074 22.8594 41.0293 23.0195C40.9512 23.1758 40.8809 23.293 40.8184 23.3711C40.8691 23.5508 40.9297 23.7187 41 23.875C41.0703 24.0273 41.1484 24.1621 41.2344 24.2793C41.3242 24.3926 41.4199 24.4824 41.5215 24.5488C41.623 24.6152 41.7324 24.6484 41.8496 24.6484C41.9863 24.6484 42.1211 24.5918 42.2539 24.4785C42.3906 24.3613 42.5156 24.2246 42.6289 24.0684C42.7461 23.9082 42.8477 23.748 42.9336 23.5879C43.0234 23.4238 43.0879 23.293 43.127 23.1953C43.166 23.1016 43.2344 23.0547 43.332 23.0547C43.3984 23.0547 43.4512 23.0781 43.4902 23.125C43.5332 23.1719 43.5547 23.2227 43.5547 23.2773C43.5547 23.3047 43.5488 23.332 43.5371 23.3594C43.5254 23.3867 43.4961 23.4492 43.4492 23.5469C43.4063 23.6445 43.3477 23.7578 43.2734 23.8867C43.2031 24.0156 43.1191 24.1523 43.0215 24.2969C42.9277 24.4375 42.8203 24.5664 42.6992 24.6836C42.582 24.8008 42.4551 24.8984 42.3184 24.9766C42.1816 25.0547 42.0371 25.0937 41.8848 25.0937C41.6152 25.0937 41.373 25.0059 41.1582 24.8301C40.9434 24.6543 40.7598 24.4082 40.6074 24.0918C40.459 23.7754 40.3457 23.4004 40.2676 22.9668C40.1895 22.5332 40.1504 22.0586 40.1504 21.543C40.1504 21.4141 40.1523 21.2637 40.1563 21.0918C40.1602 20.916 40.168 20.7324 40.1797 20.541C40.1914 20.3457 40.209 20.1465 40.2324 19.9434C40.2559 19.7363 40.2871 19.5352 40.3262 19.3398L38.2227 19.3398C38.1602 19.3398 38.1074 19.3223 38.0645 19.2871C38.0215 19.248 38 19.1973 38 19.1348C38 19.0723 38.0215 19.0234 38.0645 18.9883C38.1074 18.9492 38.1602 18.9297 38.2227 18.9297L40.4258 18.9297C40.4648 18.7891 40.5098 18.6602 40.5605 18.543C40.6152 18.4258 40.6758 18.3242 40.7422 18.2383C40.8125 18.1523 40.8887 18.0859 40.9707 18.0391C41.0566 17.9883 41.1504 17.9629 41.252 17.9629C41.3496 17.9629 41.4336 17.9883 41.5039 18.0391C41.5781 18.0859 41.6406 18.1523 41.6914 18.2383C41.7422 18.3242 41.7813 18.4258 41.8086 18.543C41.8398 18.6602 41.8633 18.7891 41.8789 18.9297L44.873 18.9297C44.9355 18.9297 44.9883 18.9492 45.0313 18.9883C45.0742 19.0234 45.0957 19.0723 45.0957 19.1348ZM40.6836 22.7852C40.8008 22.5273 40.9063 22.25 41 21.9531C41.0977 21.6523 41.1797 21.3496 41.2461 21.0449C41.3164 20.7402 41.3691 20.4414 41.4043 20.1484C41.4434 19.8555 41.4629 19.5859 41.4629 19.3398L40.7715 19.3398C40.7168 19.582 40.6719 19.8828 40.6367 20.2422C40.6055 20.5977 40.5898 21.0312 40.5898 21.543C40.5898 21.8281 40.5977 22.0684 40.6133 22.2637C40.6289 22.4551 40.6523 22.6289 40.6836 22.7852ZM41.2285 18.4023C41.1934 18.4023 41.1426 18.4414 41.0762 18.5195C41.0098 18.5937 40.9434 18.7305 40.877 18.9297L41.4395 18.9297C41.4199 18.7656 41.3906 18.6367 41.3516 18.543C41.3164 18.4492 41.2754 18.4023 41.2285 18.4023ZM40.7773 23.207L40.7773 23.2129L40.7773 23.207ZM43.8535 24.3555C43.9355 24.4687 44.041 24.5605 44.1699 24.6309C44.2988 24.6973 44.457 24.7305 44.6445 24.7305C44.8359 24.7305 45.0098 24.6855 45.166 24.5957C45.3223 24.502 45.4648 24.3809 45.5938 24.2324C45.7227 24.084 45.8379 23.918 45.9395 23.7344C46.041 23.5508 46.1328 23.3672 46.2148 23.1836C46.2344 23.1406 46.2617 23.1094 46.2969 23.0898C46.332 23.0664 46.3711 23.0547 46.4141 23.0547C46.4805 23.0547 46.5332 23.0781 46.5723 23.125C46.6152 23.1719 46.6367 23.2227 46.6367 23.2773C46.6367 23.2969 46.6348 23.3145 46.6309 23.3301C46.627 23.3418 46.6211 23.3555 46.6133 23.3711C46.3438 23.9648 46.0488 24.4121 45.7285 24.7129C45.4121 25.0137 45.0527 25.168 44.6504 25.1758C44.3926 25.1758 44.1699 25.125 43.9824 25.0234C43.7949 24.9258 43.6406 24.7988 43.5195 24.6426C43.3984 24.4824 43.3086 24.3027 43.25 24.1035C43.1914 23.9043 43.1621 23.7051 43.1621 23.5059C43.1621 23.3066 43.1855 23.123 43.2324 22.9551C43.2832 22.7871 43.3535 22.6406 43.4434 22.5156C43.5371 22.3906 43.6465 22.293 43.7715 22.2227C43.9004 22.1523 44.041 22.1172 44.1934 22.1172C44.2832 22.1172 44.3711 22.1367 44.457 22.1758C44.5469 22.2109 44.627 22.2637 44.6973 22.334C44.7676 22.4004 44.8242 22.4824 44.8672 22.5801C44.9102 22.6777 44.9316 22.7891 44.9316 22.9141C44.9316 23.0742 44.9043 23.2246 44.8496 23.3652C44.7949 23.5059 44.7188 23.6367 44.6211 23.7578C44.5273 23.8789 44.4141 23.9902 44.2813 24.0918C44.1484 24.1934 44.0059 24.2812 43.8535 24.3555ZM43.6777 23.9746C43.7988 23.9238 43.9082 23.8594 44.0059 23.7812C44.1074 23.7031 44.1934 23.6172 44.2637 23.5234C44.334 23.4297 44.3887 23.332 44.4277 23.2305C44.4668 23.125 44.4863 23.0195 44.4863 22.9141C44.4863 22.7969 44.457 22.709 44.3984 22.6504C44.3398 22.5879 44.2715 22.5566 44.1934 22.5566C44.0879 22.5566 43.998 22.5859 43.9238 22.6445C43.8496 22.7031 43.7891 22.7793 43.7422 22.873C43.6953 22.9668 43.6602 23.0723 43.6367 23.1895C43.6172 23.3027 43.6074 23.416 43.6074 23.5293C43.6074 23.5996 43.6133 23.6738 43.625 23.752C43.6406 23.8301 43.6582 23.9043 43.6777 23.9746ZM48.166 24.3437C48.0293 24.5664 47.8691 24.7422 47.6855 24.8711C47.5059 25 47.3242 25.0645 47.1406 25.0645C46.9922 25.0645 46.8594 25.0371 46.7422 24.9824C46.625 24.9277 46.5234 24.8516 46.4375 24.7539C46.3516 24.6523 46.2852 24.5312 46.2383 24.3906C46.1953 24.25 46.1738 24.0918 46.1738 23.916C46.1738 23.6426 46.1992 23.4004 46.25 23.1895C46.3047 22.9785 46.3633 22.8027 46.4258 22.6621C46.4883 22.5176 46.5469 22.4082 46.6016 22.334C46.6563 22.2598 46.6836 22.2227 46.6836 22.2227C46.7031 22.1992 46.7266 22.1816 46.7539 22.1699C46.7852 22.1582 46.8164 22.1523 46.8477 22.1523C46.9102 22.1523 46.9609 22.1758 47 22.2227C47.043 22.2656 47.0645 22.3164 47.0645 22.375C47.0645 22.3984 47.0586 22.4219 47.0469 22.4453C47.0391 22.4687 47.0293 22.4922 47.0176 22.5156C46.998 22.5508 46.9668 22.6055 46.9238 22.6797C46.8809 22.75 46.8359 22.8437 46.7891 22.9609C46.7422 23.0781 46.7012 23.2168 46.666 23.377C46.6309 23.5332 46.6133 23.7129 46.6133 23.916C46.6133 24.1465 46.6582 24.3223 46.748 24.4434C46.8418 24.5605 46.9727 24.6191 47.1406 24.6191C47.2109 24.6191 47.291 24.5977 47.3809 24.5547C47.4746 24.5078 47.5645 24.4375 47.6504 24.3437C47.7402 24.25 47.8184 24.1309 47.8848 23.9863C47.9512 23.8418 47.9941 23.6719 48.0137 23.4766L48.1016 22.4687C48.1094 22.4102 48.1348 22.3613 48.1777 22.3223C48.2207 22.2832 48.2715 22.2637 48.3301 22.2637C48.3965 22.2637 48.4492 22.2891 48.4883 22.3398C48.5273 22.3867 48.5469 22.4414 48.5469 22.5039L48.4707 23.4766C48.4629 23.5586 48.4648 23.666 48.4766 23.7988C48.4922 23.9316 48.5215 24.0625 48.5645 24.1914C48.6074 24.3203 48.6719 24.4316 48.7578 24.5254C48.8438 24.6152 48.957 24.6602 49.0977 24.6602C49.1992 24.6602 49.2988 24.6348 49.3965 24.584C49.4941 24.5293 49.5879 24.459 49.6777 24.373C49.7676 24.2871 49.8496 24.1914 49.9238 24.0859C50.002 23.9766 50.0723 23.8672 50.1348 23.7578C50.2012 23.6484 50.2578 23.5449 50.3047 23.4473C50.3516 23.3457 50.3906 23.2598 50.4219 23.1895C50.4414 23.1465 50.4688 23.1133 50.5039 23.0898C50.5391 23.0664 50.5781 23.0547 50.6211 23.0547C50.6914 23.0547 50.7461 23.0781 50.7852 23.125C50.8242 23.1719 50.8438 23.2227 50.8438 23.2773C50.8438 23.3086 50.8379 23.3379 50.8262 23.3652C50.8105 23.3965 50.7793 23.4629 50.7324 23.5645C50.6895 23.6621 50.6309 23.7754 50.5566 23.9043C50.4863 24.0293 50.4004 24.1621 50.2988 24.3027C50.1973 24.4434 50.084 24.5742 49.959 24.6953C49.834 24.8125 49.6973 24.9102 49.5488 24.9883C49.4043 25.0625 49.248 25.0996 49.0801 25.0996C48.8496 25.0996 48.6582 25.0352 48.5059 24.9062C48.3535 24.7734 48.2402 24.5859 48.166 24.3437ZM51.043 22.5918C51.0273 22.6973 51.0078 22.7969 50.9844 22.8906C50.9609 22.9805 50.9375 23.0605 50.9141 23.1309C50.8945 23.1973 50.877 23.252 50.8613 23.2949C50.8457 23.3379 50.8359 23.3613 50.832 23.3652C50.793 23.4551 50.7246 23.5 50.627 23.5C50.5723 23.5 50.5215 23.4805 50.4746 23.4414C50.4277 23.3984 50.4043 23.3457 50.4043 23.2832C50.4043 23.2598 50.4082 23.2422 50.416 23.2305C50.4238 23.2187 50.4355 23.1953 50.4512 23.1602C50.4668 23.125 50.4863 23.0664 50.5098 22.9844C50.5332 22.9023 50.5625 22.7754 50.5977 22.6035C50.5313 22.6035 50.4629 22.6016 50.3926 22.5977C50.3223 22.5937 50.2578 22.5801 50.1992 22.5566C50.1367 22.5332 50.0859 22.4961 50.0469 22.4453C50.0078 22.3945 49.9883 22.3242 49.9883 22.2344C49.9883 22.168 50.0078 22.0781 50.0469 21.9648C50.082 21.8516 50.1309 21.7402 50.1934 21.6309C50.2559 21.5215 50.3262 21.4277 50.4043 21.3496C50.4824 21.2676 50.5605 21.2266 50.6387 21.2266C50.7285 21.2266 50.8008 21.2598 50.8555 21.3262C50.9141 21.3926 50.959 21.4746 50.9902 21.5723C51.0215 21.666 51.043 21.7656 51.0547 21.8711C51.0703 21.9766 51.0781 22.0684 51.0781 22.1465C51.1445 22.1465 51.209 22.1465 51.2715 22.1465C51.3379 22.1426 51.4004 22.1406 51.459 22.1406C51.6816 22.1406 51.8516 22.1895 51.9688 22.2871C52.0859 22.3848 52.1445 22.5449 52.1445 22.7676C52.1445 22.8574 52.1387 22.9512 52.127 23.0488C52.1152 23.1465 52.1016 23.248 52.0859 23.3535C52.0703 23.4551 52.0566 23.5566 52.0449 23.6582C52.0332 23.7598 52.0273 23.8594 52.0273 23.957C52.0273 24.0977 52.0469 24.2148 52.0859 24.3086C52.125 24.3984 52.1738 24.4707 52.2324 24.5254C52.291 24.5801 52.3535 24.6191 52.4199 24.6426C52.4863 24.6621 52.5469 24.6719 52.6016 24.6719C52.7695 24.6719 52.9277 24.6172 53.0762 24.5078C53.2246 24.3984 53.3613 24.2676 53.4863 24.1152C53.6113 23.959 53.7227 23.7949 53.8203 23.623C53.9219 23.4512 54.0059 23.3008 54.0723 23.1719C54.0918 23.1367 54.1191 23.1094 54.1543 23.0898C54.1895 23.0703 54.2266 23.0605 54.2656 23.0605C54.3359 23.0605 54.3906 23.084 54.4297 23.1309C54.4688 23.1738 54.4883 23.2227 54.4883 23.2773C54.4883 23.3164 54.4805 23.3516 54.4648 23.3828C54.375 23.543 54.2695 23.7246 54.1484 23.9277C54.0313 24.127 53.8965 24.3145 53.7441 24.4902C53.5918 24.666 53.4199 24.8145 53.2285 24.9355C53.041 25.0566 52.834 25.1172 52.6074 25.1172C52.4668 25.1172 52.334 25.0898 52.209 25.0352C52.084 24.9844 51.9746 24.9102 51.8809 24.8125C51.791 24.7109 51.7188 24.5879 51.6641 24.4434C51.6094 24.2949 51.582 24.1289 51.582 23.9453C51.582 23.75 51.6016 23.5566 51.6406 23.3652C51.6797 23.1699 51.6992 22.9844 51.6992 22.8086C51.6992 22.7344 51.6816 22.6797 51.6465 22.6445C51.6152 22.6055 51.543 22.5859 51.4297 22.5859C51.375 22.5859 51.3145 22.5859 51.248 22.5859C51.1855 22.5859 51.1172 22.5879 51.043 22.5918ZM50.6504 22.1582C50.6504 22.1309 50.6484 22.0957 50.6445 22.0527C50.6445 22.0059 50.6406 21.9609 50.6328 21.918C50.6289 21.875 50.6211 21.8379 50.6094 21.8066C50.6016 21.7754 50.5918 21.7598 50.5801 21.7598C50.5684 21.7598 50.5527 21.7754 50.5332 21.8066C50.5176 21.834 50.5 21.8691 50.4805 21.9121C50.4609 21.9512 50.4434 21.9941 50.4277 22.041C50.4121 22.0879 50.4004 22.127 50.3926 22.1582L50.6504 22.1582ZM66.6523 19.3691C66.6523 19.4277 66.6309 19.4805 66.5879 19.5273C66.5488 19.5742 66.498 19.5977 66.4355 19.5977C66.377 19.5977 66.3262 19.5781 66.2832 19.5391C66.2402 19.5 66.2148 19.4473 66.207 19.3809C66.2031 19.3652 66.1934 19.291 66.1777 19.1582C66.166 19.0254 66.127 18.8633 66.0605 18.6719C65.998 18.4766 65.9004 18.2695 65.7676 18.0508C65.6348 17.8281 65.4512 17.623 65.2168 17.4355C64.9863 17.248 64.6934 17.0918 64.3379 16.9668C63.9824 16.8418 63.5508 16.7793 63.043 16.7793C62.5938 16.7793 62.1406 16.8477 61.6836 16.9844C61.2305 17.1172 60.7949 17.3066 60.377 17.5527C59.959 17.7949 59.5684 18.0859 59.2051 18.4258C58.8418 18.7617 58.5254 19.1328 58.2559 19.5391C57.9902 19.9453 57.7793 20.3789 57.623 20.8398C57.4707 21.3008 57.3945 21.7754 57.3945 22.2637C57.3945 22.7051 57.4551 23.084 57.5762 23.4004C57.6973 23.7129 57.8652 23.9687 58.0801 24.168C58.2949 24.3672 58.5469 24.5137 58.8359 24.6074C59.1289 24.6973 59.4434 24.7422 59.7793 24.7422C60.3613 24.7422 60.9043 24.6426 61.4082 24.4434C61.916 24.2402 62.3848 23.9687 62.8145 23.6289C63.248 23.2852 63.6426 22.8867 63.998 22.4336C64.3535 21.9766 64.6719 21.4961 64.9531 20.9922C64.9844 20.5156 65.0391 20.1523 65.1172 19.9023C65.1992 19.6484 65.3203 19.5215 65.4805 19.5215C65.5703 19.5215 65.6445 19.5586 65.7031 19.6328C65.7656 19.707 65.7969 19.8027 65.7969 19.9199C65.7969 20.0488 65.7637 20.2129 65.6973 20.4121C65.6309 20.6113 65.5293 20.8418 65.3926 21.1035C65.3809 21.2871 65.375 21.4844 65.375 21.6953C65.375 22.0039 65.3867 22.3418 65.4102 22.709C65.4375 23.0762 65.4785 23.4668 65.5332 23.8809C65.6973 23.7988 65.8242 23.7402 65.9141 23.7051C66.0078 23.666 66.0762 23.6406 66.1191 23.6289C66.1621 23.6133 66.1895 23.6074 66.2012 23.6113C66.2129 23.6113 66.2227 23.6113 66.2305 23.6113C66.2891 23.6113 66.3398 23.6328 66.3828 23.6758C66.4297 23.7148 66.4531 23.7676 66.4531 23.834C66.4531 23.8809 66.4395 23.9238 66.4121 23.9629C66.3848 23.998 66.3477 24.0234 66.3008 24.0391C66.293 24.043 66.2246 24.0703 66.0957 24.1211C65.9707 24.168 65.8027 24.2441 65.5918 24.3496C65.6113 24.5605 65.627 24.7734 65.6387 24.9883C65.6504 25.2031 65.6563 25.4199 65.6563 25.6387C65.6563 26.1543 65.6191 26.6465 65.5449 27.1152C65.4707 27.584 65.3477 27.9961 65.1758 28.3516C65.0078 28.707 64.7832 28.9883 64.502 29.1953C64.2207 29.4062 63.875 29.5117 63.4648 29.5117C63.2617 29.5117 63.0742 29.4766 62.9023 29.4062C62.7305 29.3359 62.582 29.2383 62.457 29.1133C62.332 28.9883 62.2344 28.8379 62.1641 28.6621C62.0938 28.4902 62.0586 28.3008 62.0586 28.0937C62.0586 27.8008 62.1074 27.5117 62.2051 27.2266C62.3066 26.9414 62.4395 26.666 62.6035 26.4004C62.7715 26.1348 62.9629 25.8828 63.1777 25.6445C63.3926 25.4102 63.6133 25.1934 63.8398 24.9941C64.0664 24.7949 64.2891 24.6191 64.5078 24.4668C64.7305 24.3145 64.9336 24.1914 65.1172 24.0977C65.0664 23.707 65.0254 23.3242 64.9941 22.9492C64.9629 22.5703 64.9434 22.2031 64.9355 21.8477C64.5957 22.3906 64.2207 22.8691 63.8105 23.2832C63.4043 23.6973 62.9785 24.0449 62.5332 24.3262C62.0879 24.6074 61.6289 24.8203 61.1563 24.9648C60.6875 25.1055 60.2207 25.1758 59.7559 25.1758C59.334 25.1758 58.9512 25.1133 58.6074 24.9883C58.2637 24.8594 57.9688 24.6719 57.7227 24.4258C57.4766 24.1797 57.2871 23.875 57.1543 23.5117C57.0215 23.1484 56.9551 22.7305 56.9551 22.2578C56.9551 21.7578 57.0332 21.2656 57.1895 20.7812C57.3457 20.293 57.5625 19.8301 57.8398 19.3926C58.1172 18.9512 58.4453 18.5449 58.8242 18.1738C59.207 17.8027 59.623 17.4824 60.0723 17.2129C60.5254 16.9395 61.002 16.7266 61.502 16.5742C62.0059 16.418 62.5195 16.3398 63.043 16.3398C63.5469 16.3398 63.9844 16.3984 64.3555 16.5156C64.7266 16.6289 65.041 16.7754 65.2988 16.9551C65.5605 17.1309 65.7715 17.3242 65.9316 17.5352C66.0957 17.7422 66.2246 17.9395 66.3184 18.127C66.3965 18.2871 66.457 18.4414 66.5 18.5898C66.5469 18.7383 66.5801 18.8691 66.5996 18.9824C66.623 19.0957 66.6367 19.1875 66.6406 19.2578C66.6484 19.3281 66.6523 19.3652 66.6523 19.3691ZM65.1699 24.584C64.9746 24.6934 64.7715 24.8242 64.5605 24.9766C64.3535 25.125 64.1504 25.2891 63.9512 25.4687C63.7559 25.6484 63.5703 25.8418 63.3945 26.0488C63.2188 26.2559 63.0645 26.4707 62.9316 26.6934C62.7988 26.916 62.6934 27.1445 62.6152 27.3789C62.541 27.6172 62.5039 27.8555 62.5039 28.0937C62.5039 28.2422 62.5273 28.375 62.5742 28.4922C62.6211 28.6133 62.6875 28.7148 62.7734 28.7969C62.8594 28.8828 62.9609 28.9492 63.0781 28.9961C63.1953 29.043 63.3242 29.0664 63.4648 29.0664C64.0156 29.0664 64.4453 28.7734 64.7539 28.1875C65.0625 27.6055 65.2168 26.7539 65.2168 25.6328C65.2168 25.4648 65.2129 25.293 65.2051 25.1172C65.1973 24.9453 65.1855 24.7676 65.1699 24.584ZM69.0605 24.3437C68.9238 24.5664 68.7637 24.7422 68.5801 24.8711C68.4004 25 68.2188 25.0645 68.0352 25.0645C67.8867 25.0645 67.7539 25.0371 67.6367 24.9824C67.5195 24.9277 67.418 24.8516 67.332 24.7539C67.2461 24.6523 67.1797 24.5312 67.1328 24.3906C67.0898 24.25 67.0684 24.0918 67.0684 23.916C67.0684 23.6426 67.0938 23.4004 67.1445 23.1895C67.1992 22.9785 67.2578 22.8027 67.3203 22.6621C67.3828 22.5176 67.4414 22.4082 67.4961 22.334C67.5508 22.2598 67.5781 22.2227 67.5781 22.2227C67.5977 22.1992 67.6211 22.1816 67.6484 22.1699C67.6797 22.1582 67.7109 22.1523 67.7422 22.1523C67.8047 22.1523 67.8555 22.1758 67.8945 22.2227C67.9375 22.2656 67.959 22.3164 67.959 22.375C67.959 22.3984 67.9531 22.4219 67.9414 22.4453C67.9336 22.4687 67.9238 22.4922 67.9121 22.5156C67.8926 22.5508 67.8613 22.6055 67.8184 22.6797C67.7754 22.75 67.7305 22.8437 67.6836 22.9609C67.6367 23.0781 67.5957 23.2168 67.5605 23.377C67.5254 23.5332 67.5078 23.7129 67.5078 23.916C67.5078 24.1465 67.5527 24.3223 67.6426 24.4434C67.7363 24.5605 67.8672 24.6191 68.0352 24.6191C68.1055 24.6191 68.1855 24.5977 68.2754 24.5547C68.3691 24.5078 68.459 24.4375 68.5449 24.3437C68.6348 24.25 68.7129 24.1309 68.7793 23.9863C68.8457 23.8418 68.8887 23.6719 68.9082 23.4766L68.9961 22.4687C69.0039 22.4102 69.0293 22.3613 69.0723 22.3223C69.1152 22.2832 69.166 22.2637 69.2246 22.2637C69.291 22.2637 69.3438 22.2891 69.3828 22.3398C69.4219 22.3867 69.4414 22.4414 69.4414 22.5039L69.3652 23.4766C69.3574 23.5586 69.3594 23.666 69.3711 23.7988C69.3867 23.9316 69.416 24.0625 69.459 24.1914C69.502 24.3203 69.5664 24.4316 69.6523 24.5254C69.7383 24.6152 69.8516 24.6602 69.9922 24.6602C70.0938 24.6602 70.1934 24.6348 70.291 24.584C70.3887 24.5293 70.4824 24.459 70.5723 24.373C70.6621 24.2871 70.7441 24.1914 70.8184 24.0859C70.8965 23.9766 70.9668 23.8672 71.0293 23.7578C71.0957 23.6484 71.1523 23.5449 71.1992 23.4473C71.2461 23.3457 71.2852 23.2598 71.3164 23.1895C71.3359 23.1465 71.3633 23.1133 71.3984 23.0898C71.4336 23.0664 71.4727 23.0547 71.5156 23.0547C71.5859 23.0547 71.6406 23.0781 71.6797 23.125C71.7188 23.1719 71.7383 23.2227 71.7383 23.2773C71.7383 23.3086 71.7324 23.3379 71.7207 23.3652C71.7051 23.3965 71.6738 23.4629 71.627 23.5645C71.584 23.6621 71.5254 23.7754 71.4512 23.9043C71.3809 24.0293 71.2949 24.1621 71.1934 24.3027C71.0918 24.4434 70.9785 24.5742 70.8535 24.6953C70.7285 24.8125 70.5918 24.9102 70.4434 24.9883C70.2988 25.0625 70.1426 25.0996 69.9746 25.0996C69.7441 25.0996 69.5527 25.0352 69.4004 24.9062C69.248 24.7734 69.1348 24.5859 69.0605 24.3437ZM72.2773 20.4004C72.2773 20.5488 72.2246 20.6758 72.1191 20.7812C72.0176 20.8828 71.8926 20.9336 71.7441 20.9336C71.5957 20.9336 71.4688 20.8828 71.3633 20.7812C71.2617 20.6758 71.2109 20.5488 71.2109 20.4004C71.2109 20.3262 71.2246 20.2578 71.252 20.1953C71.2793 20.1289 71.3164 20.0723 71.3633 20.0254C71.4141 19.9746 71.4707 19.9355 71.5332 19.9082C71.5996 19.8809 71.6699 19.8672 71.7441 19.8672C71.8184 19.8672 71.8867 19.8809 71.9492 19.9082C72.0156 19.9355 72.0723 19.9746 72.1191 20.0254C72.1699 20.0723 72.209 20.1289 72.2363 20.1953C72.2637 20.2578 72.2773 20.3262 72.2773 20.4004ZM71.3281 23.834C71.3281 23.2715 71.3633 22.7109 71.4336 22.1523C71.4414 22.0977 71.4648 22.0508 71.5039 22.0117C71.5469 21.9687 71.6016 21.9473 71.668 21.9473C71.7266 21.9473 71.7754 21.9707 71.8145 22.0176C71.8535 22.0605 71.873 22.1113 71.873 22.1699C71.873 22.1934 71.8672 22.2637 71.8555 22.3809C71.8477 22.498 71.8359 22.6387 71.8203 22.8027C71.8086 22.9629 71.7969 23.1348 71.7852 23.3184C71.7773 23.498 71.7734 23.6641 71.7734 23.8164C71.7734 24.0234 71.793 24.1914 71.832 24.3203C71.875 24.4453 71.9277 24.543 71.9902 24.6133C72.0566 24.6836 72.125 24.7305 72.1953 24.7539C72.2695 24.7773 72.3398 24.7891 72.4063 24.7891C72.5156 24.7891 72.6289 24.75 72.7461 24.6719C72.8633 24.5937 72.9824 24.4844 73.1035 24.3437C73.2285 24.2031 73.3535 24.0352 73.4785 23.8398C73.6035 23.6406 73.7266 23.4199 73.8477 23.1777C73.8672 23.1387 73.8945 23.1094 73.9297 23.0898C73.9648 23.0664 74.0039 23.0547 74.0469 23.0547C74.1094 23.0547 74.1602 23.0781 74.1992 23.125C74.2422 23.1719 74.2637 23.2227 74.2637 23.2773C74.2637 23.3164 74.2559 23.3496 74.2402 23.377C74.1934 23.4668 74.1348 23.5762 74.0645 23.7051C73.9941 23.834 73.9141 23.9668 73.8242 24.1035C73.7344 24.2402 73.6348 24.377 73.5254 24.5137C73.4199 24.6465 73.3066 24.7676 73.1855 24.877C73.0645 24.9824 72.9375 25.0684 72.8047 25.1348C72.6719 25.2012 72.5371 25.2344 72.4004 25.2344C72.2246 25.2344 72.0703 25.1973 71.9375 25.123C71.8047 25.0488 71.6914 24.9492 71.5977 24.8242C71.5078 24.6992 71.4395 24.5527 71.3926 24.3848C71.3496 24.2129 71.3281 24.0293 71.3281 23.834ZM71.9492 20.4004C71.9492 20.3457 71.9277 20.2988 71.8848 20.2598C71.8457 20.2168 71.7988 20.1953 71.7441 20.1953C71.6895 20.1953 71.6426 20.2168 71.6035 20.2598C71.5645 20.2988 71.5449 20.3457 71.5449 20.4004C71.5449 20.4551 71.5645 20.502 71.6035 20.541C71.6426 20.5801 71.6895 20.5996 71.7441 20.5996C71.7988 20.5996 71.8457 20.5801 71.8848 20.541C71.9277 20.502 71.9492 20.4551 71.9492 20.4004ZM78.5879 19.1348C78.5879 19.1973 78.5664 19.248 78.5234 19.2871C78.4805 19.3223 78.4277 19.3398 78.3652 19.3398L75.3945 19.3398L75.3945 19.4043C75.3945 19.6426 75.377 19.8965 75.3418 20.166C75.3066 20.4355 75.2578 20.7051 75.1953 20.9746C75.1367 21.2402 75.0684 21.5 74.9902 21.7539C74.916 22.0078 74.8379 22.2422 74.7559 22.457C74.6777 22.6719 74.5996 22.8594 74.5215 23.0195C74.4434 23.1758 74.373 23.293 74.3105 23.3711C74.3613 23.5508 74.4219 23.7187 74.4922 23.875C74.5625 24.0273 74.6406 24.1621 74.7266 24.2793C74.8164 24.3926 74.9121 24.4824 75.0137 24.5488C75.1152 24.6152 75.2246 24.6484 75.3418 24.6484C75.4785 24.6484 75.6133 24.5918 75.7461 24.4785C75.8828 24.3613 76.0078 24.2246 76.1211 24.0684C76.2383 23.9082 76.3398 23.748 76.4258 23.5879C76.5156 23.4238 76.5801 23.293 76.6191 23.1953C76.6582 23.1016 76.7266 23.0547 76.8242 23.0547C76.8906 23.0547 76.9434 23.0781 76.9824 23.125C77.0254 23.1719 77.0469 23.2227 77.0469 23.2773C77.0469 23.3047 77.041 23.332 77.0293 23.3594C77.0176 23.3867 76.9883 23.4492 76.9414 23.5469C76.8984 23.6445 76.8398 23.7578 76.7656 23.8867C76.6953 24.0156 76.6113 24.1523 76.5137 24.2969C76.4199 24.4375 76.3125 24.5664 76.1914 24.6836C76.0742 24.8008 75.9473 24.8984 75.8105 24.9766C75.6738 25.0547 75.5293 25.0937 75.377 25.0937C75.1074 25.0937 74.8652 25.0059 74.6504 24.8301C74.4355 24.6543 74.252 24.4082 74.0996 24.0918C73.9512 23.7754 73.8379 23.4004 73.7598 22.9668C73.6816 22.5332 73.6426 22.0586 73.6426 21.543C73.6426 21.4141 73.6445 21.2637 73.6484 21.0918C73.6523 20.916 73.6602 20.7324 73.6719 20.541C73.6836 20.3457 73.7012 20.1465 73.7246 19.9434C73.748 19.7363 73.7793 19.5352 73.8184 19.3398L71.7148 19.3398C71.6523 19.3398 71.5996 19.3223 71.5566 19.2871C71.5137 19.248 71.4922 19.1973 71.4922 19.1348C71.4922 19.0723 71.5137 19.0234 71.5566 18.9883C71.5996 18.9492 71.6523 18.9297 71.7148 18.9297L73.918 18.9297C73.957 18.7891 74.002 18.6602 74.0527 18.543C74.1074 18.4258 74.168 18.3242 74.2344 18.2383C74.3047 18.1523 74.3809 18.0859 74.4629 18.0391C74.5488 17.9883 74.6426 17.9629 74.7441 17.9629C74.8418 17.9629 74.9258 17.9883 74.9961 18.0391C75.0703 18.0859 75.1328 18.1523 75.1836 18.2383C75.2344 18.3242 75.2734 18.4258 75.3008 18.543C75.332 18.6602 75.3555 18.7891 75.3711 18.9297L78.3652 18.9297C78.4277 18.9297 78.4805 18.9492 78.5234 18.9883C78.5664 19.0234 78.5879 19.0723 78.5879 19.1348ZM74.1758 22.7852C74.293 22.5273 74.3984 22.25 74.4922 21.9531C74.5898 21.6523 74.6719 21.3496 74.7383 21.0449C74.8086 20.7402 74.8613 20.4414 74.8965 20.1484C74.9355 19.8555 74.9551 19.5859 74.9551 19.3398L74.2637 19.3398C74.209 19.582 74.1641 19.8828 74.1289 20.2422C74.0977 20.5977 74.082 21.0312 74.082 21.543C74.082 21.8281 74.0898 22.0684 74.1055 22.2637C74.1211 22.4551 74.1445 22.6289 74.1758 22.7852ZM74.7207 18.4023C74.6855 18.4023 74.6348 18.4414 74.5684 18.5195C74.502 18.5937 74.4355 18.7305 74.3691 18.9297L74.9316 18.9297C74.9121 18.7656 74.8828 18.6367 74.8438 18.543C74.8086 18.4492 74.7676 18.4023 74.7207 18.4023ZM74.2695 23.207L74.2695 23.2129L74.2695 23.207ZM81.1719 23.3652C81.1563 23.3965 81.123 23.4629 81.0723 23.5645C81.0254 23.6621 80.9629 23.7754 80.8848 23.9043C80.8105 24.0332 80.7227 24.168 80.6211 24.3086C80.5195 24.4492 80.4063 24.5781 80.2813 24.6953C80.1563 24.8125 80.0215 24.9102 79.877 24.9883C79.7324 25.0625 79.5801 25.0996 79.4199 25.0996C79.1934 25.0996 79.002 25.0273 78.8457 24.8828C78.6934 24.7383 78.582 24.5566 78.5117 24.3379C78.3789 24.5605 78.2207 24.7383 78.0371 24.8711C77.8535 25 77.6699 25.0645 77.4863 25.0645C77.3418 25.0645 77.2109 25.0391 77.0938 24.9883C76.9766 24.9336 76.877 24.8594 76.7949 24.7656C76.7129 24.668 76.6484 24.5547 76.6016 24.4258C76.5586 24.2969 76.5371 24.1562 76.5371 24.0039C76.5371 23.6992 76.5879 23.4316 76.6895 23.2012C76.7949 22.9668 76.9277 22.7715 77.0879 22.6152C77.248 22.459 77.4238 22.3418 77.6152 22.2637C77.8105 22.1855 77.998 22.1465 78.1777 22.1465C78.2988 22.1465 78.4102 22.1641 78.5117 22.1992C78.6133 22.2305 78.6992 22.2656 78.7695 22.3047C78.8438 22.3437 78.9004 22.3809 78.9395 22.416C78.9785 22.4473 79 22.4648 79.0039 22.4687C79.0469 22.5195 79.0684 22.5723 79.0684 22.627C79.0684 22.6855 79.0469 22.7383 79.0039 22.7852C78.9609 22.8281 78.9102 22.8496 78.8516 22.8496C78.7891 22.8496 78.7363 22.8281 78.6934 22.7852C78.6855 22.7773 78.668 22.7637 78.6406 22.7441C78.6133 22.7207 78.5762 22.6973 78.5293 22.6738C78.4824 22.6504 78.4258 22.6309 78.3594 22.6152C78.2969 22.5957 78.2246 22.5859 78.1426 22.5859C78.0215 22.5859 77.8926 22.6133 77.7559 22.668C77.6191 22.7227 77.4941 22.8086 77.3809 22.9258C77.2676 23.0391 77.1719 23.1836 77.0938 23.3594C77.0195 23.5312 76.9824 23.7363 76.9824 23.9746C76.9824 24.0488 76.9902 24.125 77.0059 24.2031C77.0215 24.2773 77.0488 24.3457 77.0879 24.4082C77.127 24.4707 77.1797 24.5215 77.2461 24.5605C77.3125 24.5996 77.3945 24.6191 77.4922 24.6191C77.5625 24.6191 77.6426 24.5957 77.7324 24.5488C77.8262 24.502 77.9141 24.4297 77.9961 24.332C78.082 24.2344 78.1582 24.1113 78.2246 23.9629C78.2949 23.8145 78.3438 23.6387 78.3711 23.4355C78.3789 23.3809 78.4043 23.3359 78.4473 23.3008C78.4902 23.2617 78.541 23.2422 78.5996 23.2422C78.6543 23.2422 78.7012 23.2637 78.7402 23.3066C78.7832 23.3496 78.8066 23.3984 78.8105 23.4531C78.8145 23.5273 78.8223 23.6328 78.834 23.7695C78.8457 23.9023 78.8711 24.0352 78.9102 24.168C78.9531 24.3008 79.0156 24.416 79.0977 24.5137C79.1797 24.6113 79.293 24.6602 79.4375 24.6602C79.5313 24.6602 79.623 24.6348 79.7129 24.584C79.8066 24.5332 79.8965 24.4668 79.9824 24.3848C80.0723 24.2988 80.1563 24.2031 80.2344 24.0977C80.3164 23.9883 80.3906 23.8789 80.457 23.7695C80.5234 23.6602 80.582 23.5547 80.6328 23.4531C80.6836 23.3516 80.7266 23.2637 80.7617 23.1895C80.7813 23.1465 80.8086 23.1133 80.8438 23.0898C80.8828 23.0664 80.9238 23.0547 80.9668 23.0547C81.0332 23.0547 81.0859 23.0801 81.125 23.1309C81.168 23.1777 81.1895 23.2285 81.1895 23.2832C81.1895 23.3105 81.1836 23.3379 81.1719 23.3652ZM81.3828 22.5918C81.3672 22.6973 81.3477 22.7969 81.3242 22.8906C81.3008 22.9805 81.2773 23.0605 81.2539 23.1309C81.2344 23.1973 81.2168 23.252 81.2012 23.2949C81.1855 23.3379 81.1758 23.3613 81.1719 23.3652C81.1328 23.4551 81.0645 23.5 80.9668 23.5C80.9121 23.5 80.8613 23.4805 80.8145 23.4414C80.7676 23.3984 80.7441 23.3457 80.7441 23.2832C80.7441 23.2598 80.748 23.2422 80.7559 23.2305C80.7637 23.2187 80.7754 23.1953 80.791 23.1602C80.8066 23.125 80.8262 23.0664 80.8496 22.9844C80.873 22.9023 80.9023 22.7754 80.9375 22.6035C80.8711 22.6035 80.8027 22.6016 80.7324 22.5977C80.6621 22.5937 80.5977 22.5801 80.5391 22.5566C80.4766 22.5332 80.4258 22.4961 80.3867 22.4453C80.3477 22.3945 80.3281 22.3242 80.3281 22.2344C80.3281 22.168 80.3477 22.0781 80.3867 21.9648C80.4219 21.8516 80.4707 21.7402 80.5332 21.6309C80.5957 21.5215 80.666 21.4277 80.7441 21.3496C80.8223 21.2676 80.9004 21.2266 80.9785 21.2266C81.0684 21.2266 81.1406 21.2598 81.1953 21.3262C81.2539 21.3926 81.2988 21.4746 81.3301 21.5723C81.3613 21.666 81.3828 21.7656 81.3945 21.8711C81.4102 21.9766 81.418 22.0684 81.418 22.1465C81.4844 22.1465 81.5488 22.1465 81.6113 22.1465C81.6777 22.1426 81.7402 22.1406 81.7988 22.1406C82.0215 22.1406 82.1914 22.1895 82.3086 22.2871C82.4258 22.3848 82.4844 22.5449 82.4844 22.7676C82.4844 22.8574 82.4785 22.9512 82.4668 23.0488C82.4551 23.1465 82.4414 23.248 82.4258 23.3535C82.4102 23.4551 82.3965 23.5566 82.3848 23.6582C82.373 23.7598 82.3672 23.8594 82.3672 23.957C82.3672 24.0977 82.3867 24.2148 82.4258 24.3086C82.4648 24.3984 82.5137 24.4707 82.5723 24.5254C82.6309 24.5801 82.6934 24.6191 82.7598 24.6426C82.8262 24.6621 82.8867 24.6719 82.9414 24.6719C83.1094 24.6719 83.2676 24.6172 83.416 24.5078C83.5645 24.3984 83.7012 24.2676 83.8262 24.1152C83.9512 23.959 84.0625 23.7949 84.1602 23.623C84.2617 23.4512 84.3457 23.3008 84.4121 23.1719C84.4316 23.1367 84.459 23.1094 84.4941 23.0898C84.5293 23.0703 84.5664 23.0605 84.6055 23.0605C84.6758 23.0605 84.7305 23.084 84.7695 23.1309C84.8086 23.1738 84.8281 23.2227 84.8281 23.2773C84.8281 23.3164 84.8203 23.3516 84.8047 23.3828C84.7148 23.543 84.6094 23.7246 84.4883 23.9277C84.3711 24.127 84.2363 24.3145 84.084 24.4902C83.9316 24.666 83.7598 24.8145 83.5684 24.9355C83.3809 25.0566 83.1738 25.1172 82.9473 25.1172C82.8066 25.1172 82.6738 25.0898 82.5488 25.0352C82.4238 24.9844 82.3145 24.9102 82.2207 24.8125C82.1309 24.7109 82.0586 24.5879 82.0039 24.4434C81.9492 24.2949 81.9219 24.1289 81.9219 23.9453C81.9219 23.75 81.9414 23.5566 81.9805 23.3652C82.0195 23.1699 82.0391 22.9844 82.0391 22.8086C82.0391 22.7344 82.0215 22.6797 81.9863 22.6445C81.9551 22.6055 81.8828 22.5859 81.7695 22.5859C81.7148 22.5859 81.6543 22.5859 81.5879 22.5859C81.5254 22.5859 81.457 22.5879 81.3828 22.5918ZM80.9902 22.1582C80.9902 22.1309 80.9883 22.0957 80.9844 22.0527C80.9844 22.0059 80.9805 21.9609 80.9727 21.918C80.9688 21.875 80.9609 21.8379 80.9492 21.8066C80.9414 21.7754 80.9316 21.7598 80.9199 21.7598C80.9082 21.7598 80.8926 21.7754 80.873 21.8066C80.8574 21.834 80.8398 21.8691 80.8203 21.9121C80.8008 21.9512 80.7832 21.9941 80.7676 22.041C80.752 22.0879 80.7402 22.127 80.7324 22.1582L80.9902 22.1582Z" fill="white"/>
<defs>
<filter id="filter0_i" x="-21" y="713.104" width="142" height="143.856" filterUnits="userSpaceOnUse" color-interpolation-filters="sRGB">
<feFlood flood-opacity="0" result="BackgroundImageFix"/>
<feBlend mode="normal" in="SourceGraphic" in2="BackgroundImageFix" result="shape"/>
<feColorMatrix in="SourceAlpha" type="matrix" values="0 0 0 0 0 0 0 0 0 0 0 0 0 0 0 0 0 0 127 0" result="hardAlpha"/>
<feOffset dy="4"/>
<feComposite in2="hardAlpha" operator="arithmetic" k2="-1" k3="1"/>
<feColorMatrix type="matrix" values="0 0 0 0 0.3125 0 0 0 0 0 0 0 0 0 0 0 0 0 0.7 0"/>
<feBlend mode="soft-light" in2="shape" result="effect1_innerShadow"/>
</filter>
<filter id="filter1_d" x="-0.679321" y="181.407" width="101.126" height="538.025" filterUnits="userSpaceOnUse" color-interpolation-filters="sRGB">
<feFlood flood-opacity="0" result="BackgroundImageFix"/>
<feColorMatrix in="SourceAlpha" type="matrix" values="0 0 0 0 0 0 0 0 0 0 0 0 0 0 0 0 0 0 127 0" result="hardAlpha"/>
<feOffset dx="2" dy="2"/>
<feGaussianBlur stdDeviation="1"/>
<feColorMatrix type="matrix" values="0 0 0 0 0 0 0 0 0 0 0 0 0 0 0 0 0 0 0.4 0"/>
<feBlend mode="normal" in2="BackgroundImageFix" result="effect1_dropShadow"/>
<feBlend mode="normal" in="SourceGraphic" in2="effect1_dropShadow" result="shape"/>
</filter>
<filter id="filter2_i" x="32.8717" y="241.876" width="32.9031" height="457.434" filterUnits="userSpaceOnUse" color-interpolation-filters="sRGB">
<feFlood flood-opacity="0" result="BackgroundImageFix"/>
<feBlend mode="normal" in="SourceGraphic" in2="BackgroundImageFix" result="shape"/>
<feColorMatrix in="SourceAlpha" type="matrix" values="0 0 0 0 0 0 0 0 0 0 0 0 0 0 0 0 0 0 127 0" result="hardAlpha"/>
<feOffset dy="2"/>
<feGaussianBlur stdDeviation="2"/>
<feComposite in2="hardAlpha" operator="arithmetic" k2="-1" k3="1"/>
<feColorMatrix type="matrix" values="0 0 0 0 0 0 0 0 0 0 0 0 0 0 0 0 0 0 0.3 0"/>
<feBlend mode="normal" in2="shape" result="effect1_innerShadow"/>
</filter>
<filter id="filter3_d" x="12.8218" y="133.589" width="76.3563" height="14.1345" filterUnits="userSpaceOnUse" color-interpolation-filters="sRGB">
<feFlood flood-opacity="0" result="BackgroundImageFix"/>
<feColorMatrix in="SourceAlpha" type="matrix" values="0 0 0 0 0 0 0 0 0 0 0 0 0 0 0 0 0 0 127 0" result="hardAlpha"/>
<feOffset dx="1"/>
<feGaussianBlur stdDeviation="2"/>
<feComposite in2="hardAlpha" operator="out"/>
<feColorMatrix type="matrix" values="0 0 0 0 0 0 0 0 0 0 0 0 0 0 0 0 0 0 0.25 0"/>
<feBlend mode="normal" in2="BackgroundImageFix" result="effect1_dropShadow"/>
<feBlend mode="normal" in="SourceGraphic" in2="effect1_dropShadow" result="shape"/>
</filter>
<filter id="filter4_i" x="7.93457" y="0" width="84.1309" height="137.589" filterUnits="userSpaceOnUse" color-interpolation-filters="sRGB">
<feFlood flood-opacity="0" result="BackgroundImageFix"/>
<feBlend mode="normal" in="SourceGraphic" in2="BackgroundImageFix" result="shape"/>
<feColorMatrix in="SourceAlpha" type="matrix" values="0 0 0 0 0 0 0 0 0 0 0 0 0 0 0 0 0 0 127 0" result="hardAlpha"/>
<feOffset dy="2"/>
<feComposite in2="hardAlpha" operator="arithmetic" k2="-1" k3="1"/>
<feColorMatrix type="matrix" values="0 0 0 0 0 0 0 0 0 0 0 0 0 0 0 0 0 0 0.25 0"/>
<feBlend mode="normal" in2="shape" result="effect1_innerShadow"/>
</filter>
<filter id="filter5_i" x="21.9565" y="35.6263" width="56.9641" height="85.3125" filterUnits="userSpaceOnUse" color-interpolation-filters="sRGB">
<feFlood flood-opacity="0" result="BackgroundImageFix"/>
<feBlend mode="normal" in="SourceGraphic" in2="BackgroundImageFix" result="shape"/>
<feColorMatrix in="SourceAlpha" type="matrix" values="0 0 0 0 0 0 0 0 0 0 0 0 0 0 0 0 0 0 127 0" result="hardAlpha"/>
<feOffset dy="4"/>
<feComposite in2="hardAlpha" operator="arithmetic" k2="-1" k3="1"/>
<feColorMatrix type="matrix" values="0 0 0 0 0.3125 0 0 0 0 0 0 0 0 0 0 0 0 0 0.7 0"/>
<feBlend mode="soft-light" in2="shape" result="effect1_innerShadow"/>
</filter>
<linearGradient id="paint0_linear" x1="50" y1="562" x2="50" y2="867" gradientUnits="userSpaceOnUse">
<stop stop-color="#F1BD7A"/>
<stop offset="1" stop-color="#F1BD7A"/>
</linearGradient>
<linearGradient id="paint1_linear" x1="116.016" y1="433.362" x2="-11.026" y2="433.362" gradientUnits="userSpaceOnUse">
<stop stop-color="#6F5754"/>
<stop offset="0.505208" stop-color="#4F3634"/>
<stop offset="1" stop-color="#7E6666"/>
</linearGradient>
<linearGradient id="paint2_linear" x1="0" y1="41.1911" x2="2.07251" y2="41.1911" gradientUnits="userSpaceOnUse">
<stop stop-color="#D7D8C8"/>
<stop offset="1" stop-color="#FFFDEA"/>
</linearGradient>
<linearGradient id="paint3_linear" x1="0" y1="41.1911" x2="2.07251" y2="41.1911" gradientUnits="userSpaceOnUse">
<stop stop-color="#D7D8C8"/>
<stop offset="1" stop-color="#FFFDEA"/>
</linearGradient>
<linearGradient id="paint4_linear" x1="0" y1="41.1911" x2="2.07251" y2="41.1911" gradientUnits="userSpaceOnUse">
<stop stop-color="#D7D8C8"/>
<stop offset="1" stop-color="#FFFDEA"/>
</linearGradient>
<linearGradient id="paint5_linear" x1="0" y1="41.1911" x2="2.07251" y2="41.1911" gradientUnits="userSpaceOnUse">
<stop stop-color="#D7D8C8"/>
<stop offset="1" stop-color="#FFFDEA"/>
</linearGradient>
<linearGradient id="paint6_linear" x1="0" y1="41.1911" x2="2.07251" y2="41.1911" gradientUnits="userSpaceOnUse">
<stop stop-color="#D7D8C8"/>
<stop offset="1" stop-color="#FFFDEA"/>
</linearGradient>
<linearGradient id="paint7_linear" x1="0" y1="41.1911" x2="2.07251" y2="41.1911" gradientUnits="userSpaceOnUse">
<stop stop-color="#D7D8C8"/>
<stop offset="1" stop-color="#FFFDEA"/>
</linearGradient>
<linearGradient id="paint8_linear" x1="0" y1="41.1911" x2="2.07251" y2="41.1911" gradientUnits="userSpaceOnUse">
<stop stop-color="#D7D8C8"/>
<stop offset="1" stop-color="#FFFDEA"/>
</linearGradient>
<linearGradient id="paint9_linear" x1="0" y1="41.1911" x2="2.07251" y2="41.1911" gradientUnits="userSpaceOnUse">
<stop stop-color="#D7D8C8"/>
<stop offset="1" stop-color="#FFFDEA"/>
</linearGradient>
<linearGradient id="paint10_linear" x1="0" y1="41.1911" x2="2.07251" y2="41.1911" gradientUnits="userSpaceOnUse">
<stop stop-color="#D7D8C8"/>
<stop offset="1" stop-color="#FFFDEA"/>
</linearGradient>
<linearGradient id="paint11_linear" x1="0" y1="41.1911" x2="2.07251" y2="41.1911" gradientUnits="userSpaceOnUse">
<stop stop-color="#D7D8C8"/>
<stop offset="1" stop-color="#FFFDEA"/>
</linearGradient>
<linearGradient id="paint12_linear" x1="0" y1="41.1911" x2="2.07251" y2="41.1911" gradientUnits="userSpaceOnUse">
<stop stop-color="#D7D8C8"/>
<stop offset="1" stop-color="#FFFDEA"/>
</linearGradient>
<linearGradient id="paint13_linear" x1="0" y1="41.1911" x2="2.07251" y2="41.1911" gradientUnits="userSpaceOnUse">
<stop stop-color="#D7D8C8"/>
<stop offset="1" stop-color="#FFFDEA"/>
</linearGradient>
<linearGradient id="paint14_linear" x1="0" y1="41.1911" x2="2.07251" y2="41.1911" gradientUnits="userSpaceOnUse">
<stop stop-color="#D7D8C8"/>
<stop offset="1" stop-color="#FFFDEA"/>
</linearGradient>
<linearGradient id="paint15_linear" x1="0" y1="41.1911" x2="2.07251" y2="41.1911" gradientUnits="userSpaceOnUse">
<stop stop-color="#D7D8C8"/>
<stop offset="1" stop-color="#FFFDEA"/>
</linearGradient>
<linearGradient id="paint16_linear" x1="0" y1="41.1911" x2="2.07251" y2="41.1911" gradientUnits="userSpaceOnUse">
<stop stop-color="#D7D8C8"/>
<stop offset="1" stop-color="#FFFDEA"/>
</linearGradient>
<linearGradient id="paint17_linear" x1="0" y1="41.1911" x2="2.07251" y2="41.1911" gradientUnits="userSpaceOnUse">
<stop stop-color="#D7D8C8"/>
<stop offset="1" stop-color="#FFFDEA"/>
</linearGradient>
<linearGradient id="paint18_linear" x1="0" y1="41.1911" x2="2.07251" y2="41.1911" gradientUnits="userSpaceOnUse">
<stop stop-color="#D7D8C8"/>
<stop offset="1" stop-color="#FFFDEA"/>
</linearGradient>
<linearGradient id="paint19_linear" x1="0" y1="41.1911" x2="2.07251" y2="41.1911" gradientUnits="userSpaceOnUse">
<stop stop-color="#D7D8C8"/>
<stop offset="1" stop-color="#FFFDEA"/>
</linearGradient>
<linearGradient id="paint20_linear" x1="0" y1="41.1911" x2="2.07251" y2="41.1911" gradientUnits="userSpaceOnUse">
<stop stop-color="#D7D8C8"/>
<stop offset="1" stop-color="#FFFDEA"/>
</linearGradient>
<linearGradient id="paint21_linear" x1="0" y1="41.1911" x2="2.07251" y2="41.1911" gradientUnits="userSpaceOnUse">
<stop stop-color="#D7D8C8"/>
<stop offset="1" stop-color="#FFFDEA"/>
</linearGradient>
<linearGradient id="paint22_linear" x1="0" y1="41.1911" x2="2.07251" y2="41.1911" gradientUnits="userSpaceOnUse">
<stop stop-color="#D7D8C8"/>
<stop offset="1" stop-color="#FFFDEA"/>
</linearGradient>
<linearGradient id="paint23_linear" x1="0" y1="41.1911" x2="2.07251" y2="41.1911" gradientUnits="userSpaceOnUse">
<stop stop-color="#D7D8C8"/>
<stop offset="1" stop-color="#FFFDEA"/>
</linearGradient>
<linearGradient id="paint24_linear" x1="55.3482" y1="143.724" x2="55.3482" y2="137.589" gradientUnits="userSpaceOnUse">
<stop offset="0.473958" stop-color="#FFFFFA"/>
<stop offset="1" stop-color="#BFB6B5"/>
</linearGradient>
<linearGradient id="paint25_linear" x1="92.0655" y1="78.7336" x2="7.93457" y2="78.7336" gradientUnits="userSpaceOnUse">
<stop stop-color="#674542"/>
<stop offset="0.614583" stop-color="#452E27"/>
</linearGradient>
<linearGradient id="paint26_linear" x1="92.0655" y1="78.7336" x2="7.93457" y2="78.7336" gradientUnits="userSpaceOnUse">
<stop stop-color="#674542"/>
<stop offset="0.614583" stop-color="#452E27"/>
</linearGradient>
<linearGradient id="paint27_linear" x1="92.0655" y1="78.7336" x2="7.93457" y2="78.7336" gradientUnits="userSpaceOnUse">
<stop stop-color="#674542"/>
<stop offset="0.614583" stop-color="#452E27"/>
</linearGradient>
<linearGradient id="paint28_linear" x1="92.0655" y1="78.7336" x2="7.93457" y2="78.7336" gradientUnits="userSpaceOnUse">
<stop stop-color="#674542"/>
<stop offset="0.614583" stop-color="#452E27"/>
</linearGradient>
</defs>
</svg>
